<svg width="101" height="29" fill="none" xmlns="http://www.w3.org/2000/svg"><path opacity=".2" d="M.792 1.428h99.78v26.748H.792V1.428z" fill="#5C6774"/><path fill-rule="evenodd" clip-rule="evenodd" d="M45.394 9.353a5.98 5.98 0 014.39 1.585 4.743 4.743 0 011.497 3.963 5.353 5.353 0 01-1.597 4.062 6.873 6.873 0 01-8.78 0A4.995 4.995 0 0139.307 15a5.579 5.579 0 011.597-4.062 6.222 6.222 0 014.49-1.585zM42.5 14.901a2.883 2.883 0 002.894 2.873 2.885 2.885 0 002.893-2.873 2.883 2.883 0 00-2.893-2.873 2.883 2.883 0 00-2.894 2.873z" fill="#5C6774"/><path d="M62.257 18.566a1.35 1.35 0 00-.4-.99 1.37 1.37 0 00-.997-.397 5.095 5.095 0 00-.898.199 4.03 4.03 0 01-1.497.297 2.713 2.713 0 01-2.096-.793 3.407 3.407 0 01-.698-1.981c.027-.37.093-.735.2-1.09a2.424 2.424 0 012.594-1.684c.373.018.742.084 1.097.198.387.146.788.245 1.198.297a1.44 1.44 0 001.297-.792c.072-.155.106-.325.1-.495A1.794 1.794 0 0060.66 9.75a7.585 7.585 0 00-2.295-.298 5.98 5.98 0 00-4.39 1.585A5.214 5.214 0 0052.278 15a5.135 5.135 0 001.597 3.963 5.98 5.98 0 004.39 1.585 8.244 8.244 0 002.794-.496c.599-.297 1.198-.693 1.198-1.486zM10.97 18.863c-.003.391.182.76.498.991.35.249.768.387 1.198.396h4.09c.6 0 1.597-.198 1.597-1.387 0-1.09-.997-1.287-1.596-1.287h-2.594v-1.387h1.895c.405.02.801-.123 1.098-.396.289-.246.438-.616.4-.991a1.753 1.753 0 00-.4-.99 2.102 2.102 0 00-1.098-.397h-1.895v-1.387h2.594c.599 0 1.497-.198 1.497-1.288 0-1.189-.998-1.288-1.497-1.288h-4.19a1.369 1.369 0 00-1.098.397 1.268 1.268 0 00-.4.99l-.1 8.024zM77.423 12.226h1.198c.598 0 1.596-.198 1.596-1.288 0-1.189-.998-1.288-1.596-1.288h-5.688c-.599 0-1.597.199-1.597 1.288 0 1.189.998 1.288 1.597 1.288h1.197v6.736a1.595 1.595 0 001.597 1.486c.843 0 1.542-.65 1.596-1.486l.1-6.736z" fill="#5C6774"/><path fill-rule="evenodd" clip-rule="evenodd" d="M86.403 12.92a4.008 4.008 0 012.894 1.09 4.893 4.893 0 011.297 2.575 3.523 3.523 0 01-1.297 2.774 4.735 4.735 0 01-3.193.99H83.01a2.15 2.15 0 01-1.198-.396 1.216 1.216 0 01-.499-.99v-7.926a1.38 1.38 0 01.437-1.126c.311-.29.738-.422 1.16-.36.437-.037.87.106 1.197.397.276.294.42.688.4 1.09v1.882h1.895zm-1.995 4.854h1.197c.4 0 1.497 0 1.497-1.189a.899.899 0 00-.4-.792 1.693 1.693 0 00-.997-.298h-1.297v2.279z" fill="#5C6774"/><path d="M63.155 18.863c-.004.391.182.76.498.991.35.249.768.387 1.198.396h4.09c.6 0 1.597-.198 1.597-1.387 0-1.09-.998-1.287-1.596-1.287h-2.594v-1.387h1.895c.405.02.801-.123 1.098-.396.289-.246.438-.616.4-.991a1.753 1.753 0 00-.4-.99 2.101 2.101 0 00-1.098-.397h-1.895v-1.387h2.594c.599 0 1.497-.198 1.497-1.288 0-1.189-.998-1.288-1.497-1.288h-4.29a1.368 1.368 0 00-1.098.397 1.268 1.268 0 00-.4.99v8.024z" fill="#5C6774"/><path fill-rule="evenodd" clip-rule="evenodd" d="M34.019 9.551a4.735 4.735 0 013.193.991 2.964 2.964 0 011.097 2.774 3.644 3.644 0 01-1.097 2.675 3.954 3.954 0 01-2.894.99h-1.896v1.882c.039.405-.108.805-.399 1.09-.327.29-.76.434-1.197.396a1.403 1.403 0 01-1.16-.36 1.38 1.38 0 01-.437-1.126v-7.925c.02-.385.2-.744.5-.99a1.75 1.75 0 011.197-.397h3.093zm-.2 4.855c.356.008.705-.096.998-.298a1.22 1.22 0 00.4-.792c0-1.189-1.098-1.189-1.498-1.189h-1.197v2.279h1.297zM28.431 16.981a2.604 2.604 0 00-.698-1.882 3.585 3.585 0 00-.998-.694l-.3-.098.2-.199c.47-.432.725-1.048.699-1.684a2.482 2.482 0 00-.998-2.08 4.158 4.158 0 00-2.495-.793h-3.193c-.598 0-1.596.198-1.596 1.387v7.925c.007.368.15.72.399.991.297.274.693.417 1.098.396h3.292a5.59 5.59 0 002.994-.792 2.426 2.426 0 001.596-2.477zm-5.987-4.854h.998c.3 0 .998 0 .998.693 0 .694-.699.694-.998.694h-.898l-.1-1.387zm-.1 5.548h1.497c.4 0 1.297 0 1.297-.793 0-.792-.997-.792-1.397-.792h-1.396v1.585z" fill="#5C6774"/></svg>