<svg width="31" height="24" fill="none" xmlns="http://www.w3.org/2000/svg"><path fill-rule="evenodd" clip-rule="evenodd" d="M28.111 19.576h.467v3.295h-.467v-.306c-.193.229-.475.368-.778.383a1.235 1.235 0 01-1.244-1.227c0-.677.557-1.226 1.244-1.226a.962.962 0 01.778.383v-1.302zm-14.311.996h-.856v-.69H12.4v.69h-.467v.46h.467v1.073c-.038.233.04.47.209.637.17.167.41.243.647.206.216-.006.428-.058.622-.154l-.156-.46a1.118 1.118 0 01-.466.154c-.234 0-.312-.153-.312-.383v-1.073h.856v-.46zm-7.778 2.376v-1.456a.86.86 0 00-.23-.64.886.886 0 00-.625-.28h-.078a.98.98 0 00-.856.46.857.857 0 00-.777-.46.82.82 0 00-.7.383v-.306H2.21v2.375h.545v-1.38a.485.485 0 01.084-.416.5.5 0 01.382-.196H3.3c.158.002.307.07.411.186a.541.541 0 01.133.427v1.303h.545v-1.303a.485.485 0 01.084-.417.5.5 0 01.383-.196h.077c.39 0 .545.23.545.613v1.303h.544zm11.667-2.07a.794.794 0 01.622-.383.312.312 0 01.311.154l-.155.46a.473.473 0 00-.311-.077c-.312 0-.467.23-.467.613v1.303h-.545v-2.376h.545v.306zm-6.145-.153a2.18 2.18 0 00-1.01-.23c-.623 0-1.012.307-1.012.767 0 .383.311.613.856.69h.233l.093.022c.234.056.296.07.296.207 0 .154-.156.307-.544.307a1.328 1.328 0 01-.778-.23l-.234.46c.296.205.65.312 1.012.306.7 0 1.088-.306 1.088-.766s-.31-.613-.855-.69h-.233c-.234 0-.39-.076-.39-.23 0-.153.156-.306.467-.306.276.005.545.084.778.23l.233-.537zm13.378.153a.794.794 0 01.622-.383c.156 0 .312 0 .312.154l-.156.46a.473.473 0 00-.311-.077c-.311 0-.467.23-.467.613v1.303h-.544v-2.376h.544v.306zm-6.066.843c-.022.319.09.631.312.864.221.232.53.364.854.363h.078a1.18 1.18 0 00.856-.307l-.234-.383a.89.89 0 01-.622.23.746.746 0 01-.54-.268.724.724 0 01-.16-.575c0-.183.073-.36.204-.489a.703.703 0 01.496-.2.89.89 0 01.622.229l.234-.383a1.18 1.18 0 00-.856-.307 1.276 1.276 0 00-1.322 1.15c.02 0 .04.007.055.022a.075.075 0 01.023.054zm4.9-1.15v2.3h-.545v-.306c-.193.229-.475.368-.778.383a1.235 1.235 0 01-1.244-1.227c0-.677.557-1.226 1.244-1.226a.962.962 0 01.778.383v-.306h.545zm-1.945 1.15a.736.736 0 01.778-.69.733.733 0 01.7.767c0 .183-.073.36-.204.489a.702.702 0 01-.496.2.741.741 0 01-.564-.21.718.718 0 01-.214-.556zm-7.622 0c0-.677.557-1.226 1.244-1.226.312-.005.612.114.832.33.22.218.34.513.335.82v.23h-1.789c.003.175.08.341.213.458.133.117.31.173.487.155.252-.006.495-.086.7-.23l.233.383c-.29.215-.648.323-1.01.307a1.235 1.235 0 01-1.245-1.227zm1.244-.766a.618.618 0 01.443.177.6.6 0 01.18.436H14.81a.6.6 0 01.18-.436.618.618 0 01.442-.177zm14 1.61h.078c.02-.001.04.007.056.021a.075.075 0 01.022.055l.078.077v.153a.077.077 0 01-.078.077.143.143 0 000-.23l-.078-.077h-.155c-.021 0-.041.008-.056.022a.074.074 0 00-.022.055.143.143 0 00-.031.199 3.316 3.316 0 01-.047-.046v-.153c0-.02.008-.04.022-.055a.077.077 0 01.056-.022c.02 0 .04-.007.055-.022a.075.075 0 00.023-.055h.077zm-.152.383h-.003a.142.142 0 01-.031-.031l.034.03zm.152.076c-.05 0-.101-.032-.152-.076.037 0 .056.02.075.038.019.02.038.038.077.038zm.079-.01v.01h-.079c.034 0 .052 0 .07-.006a.077.077 0 00.009-.003zm0 0a.372.372 0 00.077-.066l-.078-.077h.078v-.077c0-.02-.008-.04-.022-.054a.077.077 0 00-.056-.022h-.155v.23h.077v-.077l.078.077h.075a.077.077 0 00-.053.022.074.074 0 00-.021.045zm-2.1-1.982a.736.736 0 00-.779.69c.001.422.349.765.778.766a.702.702 0 00.496-.201.681.681 0 00.204-.489.733.733 0 00-.7-.766zm-18.434.69v-1.15h-.545v.306a.962.962 0 00-.777-.383c-.688 0-1.245.55-1.245 1.226 0 .678.557 1.227 1.245 1.227.302-.015.584-.154.777-.384v.307h.545v-1.15zm-1.542-.612a.729.729 0 00-.189 1.167.74.74 0 00.564.21.702.702 0 00.496-.2.682.682 0 00.204-.489.726.726 0 00-.336-.65.75.75 0 00-.739-.038z" fill="#5B6673"/><path d="M16.833 3.942a9.734 9.734 0 00-1.555-1.533 8.962 8.962 0 00-3.5 7.05 8.738 8.738 0 003.5 7.051 8.895 8.895 0 003.431-5.965 8.83 8.83 0 00-1.876-6.603z" fill="#757C82"/><path d="M11.856 9.46a8.738 8.738 0 013.5-7.05c-3.728-2.875-9.071-2.448-12.28.98a8.857 8.857 0 000 12.14c3.209 3.428 8.552 3.855 12.28.98a8.962 8.962 0 01-3.5-7.05z" fill="#5B6673"/><path opacity=".5" d="M28.111 3.942C25.006.07 19.314-.615 15.356 2.41a9.734 9.734 0 011.555 1.533 8.83 8.83 0 011.876 6.603 8.895 8.895 0 01-3.431 5.965 9.32 9.32 0 005.6 1.916c5.023-.006 9.093-4.017 9.1-8.966-.015-2-.699-3.94-1.945-5.518z" fill="#5B6673"/><path d="M28.967 14.748h.155v.306-.306h.156v-.077h-.311v.077zM29.511 14.901l-.078-.23h-.077v.383h.077v-.306l.078.23h.078l.078-.23v.306h.077v-.383h-.077l-.156.23z" fill="#5B6673"/></svg>