<svg width="55" height="27" fill="none" xmlns="http://www.w3.org/2000/svg"><path fill-rule="evenodd" clip-rule="evenodd" d="M27.795.374h26.322v26.252H27.795V.374zm1.087 25.168H53.03V1.458H28.882v24.084zM-.103 26.626V.374h26.322v26.252H-.103zm1.087-1.084h24.148V1.458H.984v24.084z" fill="#5C6774"/><path fill-rule="evenodd" clip-rule="evenodd" d="M3.665 18.893a.979.979 0 01-.58-.253v1.572H2.18v-5.474h.996l.054.018h.055l.054.018h.09l.055.018.054.018.055.018.054.018.054.018.055.018.054.018.036.018.036.036.055.018.036.019.036.036.036.036.055.036.036.036.036.036.036.036.037.036.018.055.036.036.036.036.036.054.019.054.018.055.036.054.036.054a3.492 3.492 0 01-.072 2.782.867.867 0 01-.743.47zm-.543-3.36h-.109v1.644c-.005.205.039.41.127.596.072.144.163.217.271.217a.333.333 0 00.29-.235c.1-.208.144-.439.127-.669.026-.4-.035-.8-.181-1.174a.57.57 0 00-.525-.38z" fill="#5C6774"/><path d="M23.393 14.557s-1.884 1.97-2.03 2.114v-1.915h-.887v5.492h.888V17.99c.018-.037 1.16-1.229 1.286-1.373 0 .198.127 3.613.127 3.613h.905l-.217-5.745-.072.072zM18.556 15.19l-.09.09-.091.09-.09.09-.091.09-.182.2-.09.09-.09.09-.091.09-.09.09-.091.091-.073.072-.072.073-.037.036-.036.036-.036.036-.036.036-.037.036-.018.036-.018.018-.018.019-.018.017v.037l-.018.018h-.018v-1.915h-.888v5.492h.888V17.99c.018-.037 1.16-1.229 1.286-1.373 0 .198.127 3.613.127 3.613h.905l-.217-5.745-.072.072v.018l-.018.018-.019.018-.018.018-.018.018-.018.018-.018.018-.018.037-.036.036-.037.036-.036.036-.036.036-.036.036-.073.072-.072.073-.073.09-.072.054zM13.248 15.46a3.146 3.146 0 00-.634 2.06c-.029.747.216 1.479.688 2.06.515.559 1.25.863 2.011.83h.037v-.957h-.037c-.499.03-.983-.177-1.304-.56l-.054-.072-.055-.073-.054-.072-.036-.072-.037-.072-.036-.073-.036-.09-.036-.09-.018-.09-.018-.091-.019-.09-.018-.09-.018-.091v-.307a2.141 2.141 0 01.417-1.373c.331-.38.819-.586 1.322-.56h.036v-.958h-.036a2.541 2.541 0 00-2.065.831z" fill="#5C6774"/><path fill-rule="evenodd" clip-rule="evenodd" d="M6.908 20.356a1.25 1.25 0 01-1.16-.795 4.946 4.946 0 01-.398-2.15 4.457 4.457 0 01.398-2.041 1.259 1.259 0 011.123-.795h.11l.053.018.055.018h.036l.036.018.055.018.036.018.054.018.036.018.037.018.054.019.036.018.036.018.037.018.036.018.036.036.036.036h.018l.037.036.036.036.036.037.036.036.037.036.036.054.036.036.036.036.018.036.037.037.018.054.036.054.036.054a5.362 5.362 0 01.018 4.101c-.207.49-.681.814-1.213.831zm-.018-4.842c-.218 0-.399.181-.508.524a6.678 6.678 0 00-.217 1.518c-.015.488.046.976.181 1.445.127.362.29.542.507.542h.073l.018-.018h.018l.018-.018.018-.018h.018l.018-.018.019-.018.018-.018.018-.018.018-.018.018-.018.018-.018.018-.018.018-.018.019-.019.018-.018.018-.018.018-.018.018-.036.018-.018.018-.036.018-.018.018-.036.019-.036.018-.037H7.36l.018-.036.018-.036.018-.036c.136-.475.197-.97.181-1.463a4.679 4.679 0 00-.163-1.41c-.109-.36-.29-.542-.543-.542z" fill="#5C6774"/><path d="M10.603 18.875l-.018-.036-.036-.036-.054-.073-.037-.054-.036-.072-.036-.072-.036-.073-.037-.09-.036-.09-.018-.09-.018-.091-.018-.09-.018-.09-.018-.091v-.307a2.141 2.141 0 01.416-1.373c.331-.38.819-.586 1.323-.56h.054v-.958h-.054a2.503 2.503 0 00-2.047.831 3.54 3.54 0 00.054 4.12c.514.559 1.25.863 2.01.83h.037v-.957h-.072c-.5.016-.981-.197-1.305-.578zM3.212 7.62h1.25v4.606h1.014v-5.51H2.197v5.51h1.015V7.62z" fill="#5C6774"/><path fill-rule="evenodd" clip-rule="evenodd" d="M9.97 11.504a1.499 1.499 0 01-1.36.83 1.427 1.427 0 01-1.304-.776 4.423 4.423 0 01-.435-2.114 4.038 4.038 0 01.453-2.06 1.429 1.429 0 011.287-.813h.217l.018-.018.054.018.055.018.054.018.054.018.037.019.054.018.054.018.037.018.054.018.036.018.036.036h.055l.054.036.036.036.037.036.036.037.036.036.036.036.036.036.037.036v.036l.036.036.036.055.036.036.037.054.036.054.054.036a4.778 4.778 0 010 4.138zM8.61 7.493c-.253 0-.434.18-.561.524a4.355 4.355 0 00-.2 1.427c-.017.484.05.967.2 1.427l.018.036v.018l.018.037.018.036v.018l.018.018.019.036.018.036.018.018.018.018.018.036.018.018.018.018.018.019.018.018v.018l.037-.055.018.019.018.018.018.018.018.018.018.018.018.018.018.018.019.018h.036l.018.018.018.018h.09c.236 0 .435-.162.562-.524.143-.468.21-.956.2-1.445a4.085 4.085 0 00-.182-1.41c-.126-.343-.326-.523-.597-.523z" fill="#5C6774"/><path d="M16.817 12.226h1.014V7.62h.851v-.904h-2.716v.904h.85v4.606zM11.962 9.191c.284.238.644.366 1.014.361h.743v2.656h1.014V6.716H13.72V8.63h-.543a.771.771 0 01-.508-.145.38.38 0 01-.108-.289V6.734h-1.015v1.572c0 .342.153.667.417.885z" fill="#5C6774"/><path fill-rule="evenodd" clip-rule="evenodd" d="M22.215 9.534h-1.268a23.192 23.192 0 01-.217 2.656h-1.015l.181-5.51H21.4c.373-.026.744.076 1.05.289l.037.036.018.036.036.018.037.036.036.036.018.018.036.036.018.019.018.036.037.036.018.036.018.036.018.036.018.036.018.036.018.037.018.036.018.036.019.036.018.036.018.036.018.036.018.037.018.054.018.036v.054l.018.036v.054l.018.055v.162l.472 4.03h-1.015s-.272-2.584-.29-2.693zm-1.25-.975v.054l1.142-.018a1.727 1.727 0 00-.182-.741.59.59 0 00-.543-.253h-.362v.072l-.018.018V8l-.019.036v.361l-.018.036v.127z" fill="#5C6774"/><path d="M36.2 10.383c.143.106.26.242.345.398-.598-.38-.96-.145-.96-.145.046.346.296.63.633.723a.88.88 0 00-.779.217c.147.277.43.455.743.47-.47.361-.398.632-.398.632.276.087.578.04.815-.126a.723.723 0 00-.09.903.873.873 0 00.706-.488c-.055.47.181.596.181.596a.83.83 0 00.435-.343c.11.2.302.345.525.398a.685.685 0 00.036-.579c.308.09.399-.09.399-.09a1.739 1.739 0 01-.308-.56 1.428 1.428 0 01-1.377-.108c-.181-.217.127-.76.29-1.157a.623.623 0 00-.254-.795l-.072-.054-.073-.054-.072-.054-.072-.054-.073-.055-.054-.054-.055-.054-.054-.054-.054-.054-.055-.055-.054-.054-.054-.054-.055-.054-.036-.054-.036-.037-.036-.054-.037-.036-.036-.036-.036-.036-.036-.036-.037-.036-.036-.037-.036-.036-.036-.036-.055-.09-.036-.09-.036-.073-.036-.09c-.134.55.023 1.128.416 1.535zM37.921 15.045l-.018-.018-.018-.018-.018-.018-.018-.019-.018-.018-.018-.018-.019-.018.019-.036-.019-.018-.018-.018v-.018l-.018-.018v-.018l-.018-.018v-.036a3.032 3.032 0 00.526 1.734c.18-.34.213-.738.09-1.102a.809.809 0 01-.217-.108c.053.206.065.42.036.632 0 0-.163-.109-.254-.85zM37.215 14.954l-.018-.018v-.018l-.018-.018-.019-.018-.018-.018-.018-.018-.018-.018-.018-.018-.018-.018-.018-.018-.018-.018v-.018c-.037.433-.145 1.571.235 1.933 0 0 .254-.199.363-1.861a1.545 1.545 0 01-.2.253 1.98 1.98 0 01-.127.903c-.018-.072-.199-.217-.09-1.012zM36.599 16.038c.219-.564.33-1.165.326-1.77v-.127l-.054.055a.555.555 0 01-.127.09v.452l-.018.054v.054l-.018.054-.018.054-.019.055-.036.126-.018.072-.018.054-.018.055-.018.054-.018.054-.019.054-.018.055-.018.054-.036.054-.036.054-.036.036-.037.036c-.02-.496.072-.99.272-1.445-.054.018-.09.036-.145.054-.362.615-.815 1.482-.453 2.132-.018.054.363-.126.58-.47zM35.44 14.051c0-.018-.019-.036-.019-.054v-.127a3.98 3.98 0 01-1.376 1.084 3.408 3.408 0 011.395-1.21.84.84 0 01.09-.18h-.036a.573.573 0 01-.362-.055c-.45.32-.864.69-1.232 1.102-.337.371-.546.84-.598 1.337a1.61 1.61 0 001.177-.65c.26-.46.583-.88.96-1.247zM34.95 13.364c-.036-.018-.054-.054-.072-.072a6.125 6.125 0 01-1.63 1.012c.13-.218.303-.408.507-.56a4.964 4.964 0 011.069-.542l.036-.054c0-.018.018-.036.036-.054-.308.108-1.359.505-1.703.686-.537.301-.934.8-1.105 1.391.47.015.93-.132 1.304-.415.58-.488 1.269-1.175 1.558-1.392zM34.642 13.057a.853.853 0 01-.362-.108c-.527.26-1.099.42-1.685.47.194-.134.4-.25.616-.344.33-.138.669-.253 1.015-.343v-.072c-.344.072-1.214.18-1.612.289a2.429 2.429 0 00-1.504 1.192 2.776 2.776 0 001.775-.36c.565-.29 1.153-.532 1.757-.724zM32.124 12.768a13.341 13.341 0 002.247-.325c.063-.076.136-.143.217-.199h-.254l-.018-.018h-.036l-.018-.018a5.269 5.269 0 01-1.956.217 5.65 5.65 0 011.775-.307c-.09-.054-.163-.109-.163-.109-.49.073-1.612.055-2.047.145a5.07 5.07 0 00-1.468.578c-.036-.09.58.127 1.721.036zM29.969 10.944a5.384 5.384 0 001.72.758 8.492 8.492 0 002.193.073c.041-.066.09-.126.145-.181a9.002 9.002 0 01-2.066-.289 4.89 4.89 0 012.21.18h.29a10.441 10.441 0 00-2.572-.541 4.964 4.964 0 00-1.92 0zM31.327 10.42c.852.36 2.464.56 3.28.92l-.037-.017-.036-.018-.036-.018-.037-.018-.036-.018-.036-.018-.018-.019-.018-.018-.019-.018-.018-.018-.018-.018-.018-.018-.018-.018-.018-.018-.018-.018-.018-.018-.018-.018-.019-.018v-.163a9.084 9.084 0 01-1.268-.307 3.83 3.83 0 01-.905-.416c.312.015.622.063.924.145.507.144.76.235 1.304.434a.955.955 0 01.435-.145 22.64 22.64 0 00-2.247-.813 7.368 7.368 0 00-2.445-.416c-.018 0 .199.597 1.358 1.084zM34.262 10.167l-.018-.018v-.018l-.018-.019-.018-.018-.018-.018-.019-.018v-.018c-.47-.217-.58-.307-.815-.415a8.5 8.5 0 01-.887-.597 4.47 4.47 0 01-.598-.65c.346.138.67.327.96.56.326.235.833.614 1.25.958l-.145-.452c-.507-.398-1.232-1.102-1.467-1.337a5.633 5.633 0 00-1.577-1.12c-.067.52.041 1.048.309 1.5a5.72 5.72 0 003.061 1.68z" fill="#5C6774"/><path d="M37.83 13.419l-.017.018c-.034.24-.04.482-.019.723.028.3.148.584.345.813a.666.666 0 00.543.234 4.218 4.218 0 01-.235-.632 6.413 6.413 0 00-.2-.65 9.254 9.254 0 01-.416-.506zM37.324 13.654l-.019-.018a.973.973 0 00-.163.307 1.134 1.134 0 000 .65c.066.153.158.294.272.416a1.02 1.02 0 00.272-.452c.032-.179.038-.362.018-.542a1.694 1.694 0 00-.072-.29.258.258 0 01-.11.037l-.035.018-.055-.018-.108-.108zM36.998 13.4l-.019.019-.018.018-.036.018-.018.018-.036.018-.037.018-.036.018-.036.018-.036.018h-.036l-.037.018h-.127c-.616.578-.543.813-.543.813.297.025.592-.073.815-.27a.761.761 0 00.272-.416.51.51 0 00-.036-.307h-.036zM36.418 13.527l-.018-.018v-.343a1.957 1.957 0 00-.544.253.452.452 0 00-.217.56c.453.09.706-.362.779-.452zM36.291 12.822h-.507l-.055-.017-.018-.055c-.271.235-.616.271-.724.47.112.164.31.248.507.217.327-.034.627-.196.833-.452a.423.423 0 01.036-.144h-.036l-.036-.018zM35.802 12.299l.018-.018v-.091l.018-.018v-.018l.018-.018a2.047 2.047 0 00-.743 0 .898.898 0 00-.851.65c.18.121.404.16.616.109.31-.053.592-.213.797-.452v-.018l.018-.018v-.036l.018-.018v-.018l.018-.018v-.018l.019-.018.054.018zM33.972 11.847c.203.161.448.262.707.289.31.007.616-.068.887-.217l-.018-.018-.018-.018-.018-.018-.018-.018-.018-.018-.018-.018-.018-.018-.019-.018-.018-.018-.018-.018-.018-.019-.018-.018-.018-.018-.018-.018-.018-.018-.037-.054a1.212 1.212 0 00-.905-.072.702.702 0 00-.38.325zM34.842 11.287c.26.101.547.114.815.036h.2a1.11 1.11 0 01-.327-.542 1.344 1.344 0 01-.598-.018.758.758 0 00-.634.09c.092.23.298.395.544.434zM35.476 10.582l.054-.036c.096-.05.2-.08.308-.09a8.36 8.36 0 00-.797-.579 3.886 3.886 0 00-1.014-.415c.118.306.283.593.489.85a.98.98 0 00.96.27zM35.965 10.311l-.018-.036-.018-.036-.019-.036-.018-.036-.018-.037-.018-.036-.018-.036-.018-.036-.018-.036-.018-.036-.018-.036-.018-.036-.019-.037-.018-.036-.018-.054-.018-.036a6.534 6.534 0 00-.254-.831 1.516 1.516 0 00-.87-.723c-.079.354-.034.724.128 1.048a3.03 3.03 0 001.286 1.102z" fill="#5C6774"/><path d="M38.41 13.744l-.072-.018a.683.683 0 01-.217-.072c.163.18.265.408.29.65.126.614.235.632.235.632.09-.216.254-.614.453-1.011a.813.813 0 00.036-.705h-.054l-.018-.018h-.037l-.018-.018h-.018l-.018-.018h-.018l-.018-.018-.018-.018-.018-.018-.019-.018v.018a.393.393 0 01-.326.144v.108c.001.132-.03.262-.09.38h-.055zM34.461 9.48l.109.054c.109.055.236.109.326.145a2.047 2.047 0 01-.308-.416c-.054-.108-.09-.216-.127-.307l-.036-.108a8.992 8.992 0 01-.942-.831 3.06 3.06 0 01-.779-1.229c.265.17.498.383.688.632.363.452.725.922 1.051 1.32l-.018-.145v-.217a15.879 15.879 0 00-1.014-1.716 9.757 9.757 0 00-1.323-1.464 3.077 3.077 0 00.127 2.024A5.95 5.95 0 0034.46 9.48zM50.095 10.853a9.66 9.66 0 00-2.572.542h.271a5.224 5.224 0 012.21-.18 9.002 9.002 0 01-2.065.289c.054.055.102.116.145.18.73.071 1.468.047 2.192-.072a5.625 5.625 0 001.721-.759c-.38 0-1.014-.054-1.902 0zM47.25 10.564a.747.747 0 01.454.145c.422-.18.858-.325 1.304-.434.302-.08.612-.129.924-.145a3.836 3.836 0 01-.906.416 9.077 9.077 0 01-1.268.307v.145l-.018.018v.018l-.018.018-.018.018-.018.018-.019.018-.072-.018-.018.018-.018.018-.018.018-.018.018-.019.018-.018.018-.018.019-.054.054-.036.018-.037.018-.036.018-.036.018c.815-.361 2.41-.56 3.279-.921 1.16-.47 1.377-1.084 1.377-1.084a6.855 6.855 0 00-2.446.415c-.725.217-1.83.633-2.228.813zM48.048 9.336l-.145.451a26.59 26.59 0 011.25-.957c.297-.234.626-.423.978-.56a4.475 4.475 0 01-.598.65 6.362 6.362 0 01-.887.596c-.236.127-.345.199-.816.416l-.018.018-.018.018-.018.018-.018.018-.018.018v.018a5.845 5.845 0 003.134-1.788c.267-.452.376-.98.308-1.5a6.008 6.008 0 00-1.594 1.12 17.43 17.43 0 01-1.54 1.464zM47.015 9.679c.104-.06.213-.107.326-.145l.11-.054a6.282 6.282 0 002.264-2.258 2.962 2.962 0 00.126-2.024c-.489.442-.932.933-1.322 1.464a12.25 12.25 0 00-1.015 1.716v.199l-.018.144c.308-.397.689-.867 1.033-1.319.19-.249.424-.463.688-.632-.164.463-.43.883-.779 1.229a9 9 0 01-.942.83l-.036.11a1.56 1.56 0 01-.127.306 3.744 3.744 0 01-.308.434zM35.892 14.195c.018-.036.037-.09.055-.126a.88.88 0 01-.326.054h-.018l-.037.036-.036.037-.036.036-.036.054-.055.054-.054.054-.054.054-.055.055-.054.054-.054.054-.055.054-.054.055-.055.072-.054.072-.054.072-.054.073-.037.072-.036.072-.036.072-.036.073-.037.072-.036.09-.036.072-.036.09-.018.091-.019.09-.018.09-.018.091v.362c.44-.141.82-.42 1.087-.795.179-.368.39-.72.634-1.048a.599.599 0 01-.254 0l-.072-.018c-.22.442-.536.83-.924 1.138a2.747 2.747 0 01.978-1.428zM45.566 9.66l-.054.055-.055.054-.054.054-.054.055-.055.054-.054.054-.054.054-.055.054-.072.055-.073.054-.072.054-.073.054-.072.054a.623.623 0 00-.254.795c.163.398.471.94.29 1.157-.41.27-.93.31-1.377.108a1.738 1.738 0 01-.308.56s.091.18.399.09a.775.775 0 00.036.579.7.7 0 00.507-.398.83.83 0 00.435.343s.236-.126.181-.596c.14.27.405.453.707.488a.722.722 0 00-.09-.903.934.934 0 00.814.126s.091-.271-.398-.632a.886.886 0 00.743-.47.913.913 0 00-.78-.217.896.896 0 00.635-.723s-.363-.234-.96.145c.091-.15.208-.285.344-.398.389-.41.552-.983.435-1.535l-.037.09-.036.072-.036.09-.054.091-.037.036-.036.036-.036.036-.036.037-.037.036-.036.036-.036.036-.036.036-.036.054-.037.036-.036.055zM43.555 15.352c-.123.364-.09.763.09 1.102a3.032 3.032 0 00.526-1.735v.055l-.018.018v.018l-.018.018v.018l-.018.018-.018.018-.018.018-.019.018-.018.018-.018.018-.018.018-.018.019-.018.018c-.109.74-.254.849-.254.849a1.588 1.588 0 01.036-.633.345.345 0 01-.199.127zM44.298 14.756c.09 1.662.362 1.86.362 1.86.38-.36.272-1.499.236-1.933v.018l-.018.018-.019.019-.018.018-.018.018-.018.018-.018.018-.018.018-.018.018-.018.018v.018c.127.795-.073.94-.073.94a1.98 1.98 0 01-.127-.904c-.09.036-.18-.072-.235-.162zM45.186 14.304a.79.79 0 01-.127-.108l-.054-.055v.127a4.899 4.899 0 00.326 1.77c.152.222.357.402.597.524.363-.65-.072-1.517-.453-2.132-.054-.018-.09-.036-.144-.054.2.455.293.95.271 1.446l-.036-.037-.036-.036-.036-.054-.019-.054-.036-.054-.018-.054-.018-.055-.018-.054-.018-.054-.018-.054-.018-.055-.019-.072-.036-.126-.018-.054-.018-.055-.018-.054v-.054l-.018-.054v-.452l-.018-.036zM46.798 13.473a.731.731 0 01-.362.054h-.037a.426.426 0 01.09.18c.569.268 1.052.687 1.396 1.211a3.982 3.982 0 01-1.377-1.084v.09c0 .02-.006.04-.018.055.373.368.707.773.996 1.21a1.61 1.61 0 001.178.65 2.308 2.308 0 00-.598-1.336 24.8 24.8 0 00-1.268-1.03zM48.718 13.78c-.344-.18-1.395-.578-1.685-.686.018.018.018.036.037.054l.036.054c.37.137.724.32 1.05.542.205.152.377.342.508.56a6.127 6.127 0 01-1.63-1.012c-.019.018-.037.054-.073.072.29.217.978.904 1.558 1.374.368.294.833.442 1.304.415a2.42 2.42 0 00-1.105-1.373zM49.262 12.93c-.399-.125-1.269-.216-1.613-.288v.09c.346.09.685.205 1.015.344.218.09.425.204.616.343a4.37 4.37 0 01-1.685-.47.851.851 0 01-.362.108c.6.191 1.181.433 1.739.723.534.316 1.16.443 1.775.361a2.321 2.321 0 00-1.485-1.21zM48.012 11.937a.673.673 0 01-.163.109 5.628 5.628 0 011.757.307 5.28 5.28 0 01-1.957-.217l-.018.018h-.036l-.018.018h-.272c.083.061.162.127.236.199a11.41 11.41 0 002.246.325c.588.07 1.185.027 1.757-.126a5.638 5.638 0 00-1.467-.579 20.243 20.243 0 01-2.065-.054z" fill="#5C6774"/><path d="M44.171 13.509l-.018-.018a3 3 0 00-.362.578 7.44 7.44 0 00-.181.65c-.057.219-.136.43-.236.633.208.01.41-.076.543-.235.2-.227.321-.512.345-.813-.055-.29-.055-.578-.09-.795zM44.678 13.563l-.018.018-.036.018-.054-.018a.258.258 0 00-.109-.036c-.03.095-.055.191-.072.29-.082.358.027.734.29.993.113-.122.205-.262.271-.416a.998.998 0 000-.65c-.163-.018-.217-.145-.272-.199z" fill="#5C6774"/><path d="M45.367 13.581h-.127l-.036-.018h-.036l-.037-.018-.036-.018-.036-.018-.036-.018-.037-.018-.036-.018-.018-.018-.036-.018-.018-.018-.018-.018a.417.417 0 00-.037.307.761.761 0 00.272.415c.216.198.505.296.797.271 0 0 .073-.235-.543-.813l.018.018zM45.566 13.4l-.018.019v.072c.18.314.526.497.888.47a.454.454 0 00-.218-.56 1.748 1.748 0 00-.543-.253v.235l-.109.018z" fill="#5C6774"/><path d="M46.091 12.805h-.543a.81.81 0 01.036.144c.201.262.504.426.833.452.198.04.4-.046.508-.217-.109-.217-.453-.253-.725-.47l-.018.054-.054.018h-.019l-.018.019zM46.019 12.172l.018.018.018.018v.109l.018.018v.018l.018.018.018.018v.018l.019.018v.036l.018.018c.198.246.483.407.797.452a.7.7 0 00.616-.109.931.931 0 00-.852-.65 1.478 1.478 0 00-.688 0zM46.436 11.829l-.019.018-.018.018-.018.018-.018.018-.018.018-.018.018c.27.152.577.227.888.217.258-.027.503-.127.706-.289a.818.818 0 00-.453-.361 1.22 1.22 0 00-.906.072l-.036.054-.018.018-.018.018-.018.018-.018.018-.018.018-.019.019-.018.018-.018.018.055.054zM46.091 11.269h.2c.268.078.555.065.815-.036a.719.719 0 00.561-.506.76.76 0 00-.634-.09c-.195.05-.4.057-.597.018-.05.234-.17.448-.345.614z" fill="#5C6774"/><path d="M47.378 10.311a2.55 2.55 0 00.489-.85 4.153 4.153 0 00-1.015.416 6.54 6.54 0 00-.797.579.66.66 0 01.308.09l.054.036a.955.955 0 00.96-.27zM46.146 9.932l-.018.036-.019.036-.018.036-.018.036-.018.036-.018.037-.018.036-.018.036-.018.036-.018.036-.019.036c.526-.238.972-.62 1.287-1.102.161-.324.206-.694.126-1.048-.372.12-.684.38-.87.723a6.534 6.534 0 00-.253.831l-.018.036-.018.054-.018.036-.018.037-.018.036zM43.03 13.04l-.036.017-.018.018-.018.019-.019.018h-.018l-.018.018h-.018l-.018.018h-.036l-.019.018h-.072a.813.813 0 00.036.704c.177.325.329.664.453 1.012 0 0 .109-.018.236-.632.032-.24.133-.466.29-.65-.07.03-.143.054-.218.072l-.072.018-.037-.072a.82.82 0 01-.09-.38v-.108a.292.292 0 01-.308-.09zM47.414 16.255v-.27l-.018-.091-.018-.09-.019-.09-.036-.091-.036-.09-.036-.073-.036-.09-.037-.072-.036-.073-.036-.072-.036-.072-.055-.072-.036-.073-.054-.072-.055-.072-.054-.072-.054-.055-.055-.054-.054-.054-.054-.054-.055-.055-.054-.054-.036-.054-.055-.054-.036-.054-.036-.036v-.037l-.036-.036h-.018a.88.88 0 01-.327-.054c.028.04.052.083.073.126 1.014.958.924 1.428.924 1.428a3.371 3.371 0 01-.924-1.138l-.072.018a.599.599 0 01-.254 0c.243.329.455.68.634 1.048.263.378.646.658 1.087.795v-.09zM40.784 6.409h-.417c0 .072.272.126.598.126.326 0 .597-.054.597-.126 0-.073-.271-.127-.597-.127h-.181v.127zM38.574 7.167h-.236c0 .037.181.073.398.073.218 0 .38-.036.38-.073 0-.036-.18-.072-.38-.072h-.09l-.072.072zM40.947 6.933h.018a.121.121 0 00-.127-.109c-.054 0-.127.054-.127.109.127-.055.181 0 .236 0zM39.986 5.541v.127l.019.036v.072l.018.036.018.036.018.037.018.036.018.036.018.036.018.036.019.036.018.036.018.037.018.036.018.036.018.036.018.036.018.036.018.036.019.055c.086-.041.177-.072.271-.09a3.078 3.078 0 00-.235-.994.196.196 0 00-.2 0c-.072.018-.163.072-.163.144v.072z" fill="#5C6774"/><path d="M40.675 6.318h.145a7.64 7.64 0 00-.181-.849c-.055-.162-.127-.289-.236-.325.057.152.1.31.127.47.066.23.114.466.145.704zM39.733 7.294h.435l.036-.018h.036l.036-.018.037-.018.036-.018.036-.018.036-.018.037-.019a.763.763 0 00.29-.379 1.034 1.034 0 00-.635.163.602.602 0 00-.38.343z" fill="#5C6774"/><path fill-rule="evenodd" clip-rule="evenodd" d="M38.284 7.348h.018l.014-.029.022.011h.018l.036.018h.037l.036.018h.036l.036.018.037.018h.036l.036.018h.036l.036.018h.254c.445.005.889-.043 1.322-.144a.402.402 0 01-.217.217.307.307 0 01.2.09.366.366 0 01-.218.18c.16.16.372.257.598.272a.45.45 0 01-.471.126.73.73 0 01-.471-.307.748.748 0 01.018.235.322.322 0 01-.236-.145.83.83 0 01.09.253.53.53 0 01-.253-.09.437.437 0 01.037.18 1.993 1.993 0 01-.544-.288v.18s-.58-.054-.616-.885h.018l.018.018h.019l.018.018zm.045-.054h-.045l.018.018.014.007.013-.025zm0 0h.027l-.018-.018-.01.018zm.897.361V7.62c-.175.02-.362.024-.49.026-.098.001-.162.002-.162.01.014.1.066.19.144.253.018-.253.508-.253.508-.253z" fill="#5C6774"/><path d="M37.994 7.547a.96.96 0 00.272.307l-.018-.018-.019-.018-.018-.036v-.036l-.018-.037v-.397c-.272 0-.272.09-.2.235z" fill="#5C6774"/><path fill-rule="evenodd" clip-rule="evenodd" d="M38.247 8.06v-.006l.033.03h-.014l-.019-.023zm.091.07h.018l.018.023.018.023.018.023.019.023.018.023v.023h.018l.018.023.018.023v.023h.018v.023a1.08 1.08 0 00-.326.138.558.558 0 00-.797.023c-.21-.174-.281-.524-.163-.806a.399.399 0 01.254-.184.49.49 0 01.271.023c.065.288.304.41.444.483l.045.024-.018-.023.018.016v-.016h.019l.018.023.018.023.018.023.018.023zm-.033-.023l-.012-.012.009.012h.003zm-.51 0zm-.019.023l.018-.023c0-.07-.054-.139-.18-.07a.076.076 0 00-.066.032.126.126 0 00-.025.084c.003.062.042.11.09.115h.019l.018-.023h.036v-.023h.036v-.023h.018v-.023h.018v-.023h.018V8.13z" fill="#5C6774"/><path d="M38.845 8.54l-.018-.017-.018-.019h-.018l-.018-.018-.018-.018-.019-.018-.018-.018-.018-.036-.018-.018-.018-.018-.018-.018v-.018l-.018-.018v-.018h-.018V8.233a.625.625 0 00-.508.29c-.144.198.055.505.055.505.109-.487.688-.487.688-.487zM40.005 8.902a3.452 3.452 0 01-.345-.578c-.054 0-.126-.036-.18-.036v.162h-.146c.142.098.275.207.399.325.12.138.224.29.308.452a2.501 2.501 0 01-.036-.325z" fill="#5C6774"/><path d="M39.208 8.74c.121.08.226.185.308.307a.561.561 0 00-.29-.542h-.018l-.019-.019h-.036l-.018-.018h-.036l-.018-.018-.037-.018-.036-.018-.036-.018-.036-.018H38.7c.145.072.38.29.508.361zM38.882 6.445l-.019-.018h-.036c-.054 0-.163.036-.163.126a.24.24 0 00.015.331.24.24 0 00.347-.331l-.145-.108z" fill="#5C6774"/><path d="M38.41 7.095c.061 0 .122-.007.182-.018V6.86l-.018-.036v-.289a.325.325 0 00-.236-.072.099.099 0 00-.09.126c-.11.09.144.452.163.506zM38.972 6.553l-.018.018v.199l-.018.036v.29c.145 0 .127 0 .18.017.112-.157.215-.32.309-.488a.098.098 0 00-.09-.126c-.182-.036-.29-.018-.363.054zM38.628 6.3h.163v-.234h.181V5.92h-.18v-.2h-.164v.2h-.181v.145h.18V6.3zM36.671 7.276v-.109a.676.676 0 000-.27c-.145.054-.235.09-.416.397.018-.018.326-.199.416-.018zM36.798 7.168c-.022.209.03.42.145.596v-.308l.018-.036v-.036l.018-.036.019-.036.018-.036V7.24a.995.995 0 00-.055-.687.936.936 0 01-.127-.524 1.015 1.015 0 00-.271.127c.007.191.063.378.163.542.072.145.097.31.072.47zM36.961 6.138a.358.358 0 00.2 0 1.63 1.63 0 00.398-.253.283.283 0 01.217-.09.332.332 0 00-.29-.073c-.19.07-.364.181-.507.325l-.018.09zM37.487 6.445a.622.622 0 00-.091.433c.036.217.38.29.38.29a.386.386 0 01-.126-.217.593.593 0 01.145-.362c.086-.138.147-.291.18-.451V5.975l-.017-.018-.018-.018-.019-.018-.018-.018-.018-.018-.018-.018c.013.068 0 .14-.036.198a.988.988 0 00-.344.38zM39.787 8.18l.018.035.019.055.018.036.018.036.018.036.018.036.018.036.018.036.018.036.018.037.018.036.019.036.018.036.018.036.018.036.018.036c.094.16.15.34.163.524.078-.182.104-.382.073-.578a.988.988 0 00-.526-.542z" fill="#5C6774"/><path d="M40.512 8.342l-.018-.018h-.38c.07.175.181.33.325.452a.697.697 0 00.363.162.725.725 0 00-.29-.596zM38.827 8.703h-.054c.11.03.214.08.308.145.108.092.18.22.199.361.058.212.137.418.236.614h.018a1.297 1.297 0 01.108-.596 1.316 1.316 0 01-.235-.199 1.258 1.258 0 00-.417-.361h-.018l-.145.036zM40.131 9.842v-.326l-.018-.036-.018-.036v-.036l-.018-.018v-.127a.62.62 0 00-.254.506c-.005.224.014.448.055.669.018-.235.18-.344.253-.596zM40.186 9.986c-.04.14-.052.288-.036.433.04.104.096.2.163.29.099-.162.214-.313.344-.452a.418.418 0 00.072-.398v-.144l-.018-.018-.018-.018-.018-.036-.018-.055-.018-.054-.019-.036-.018-.018-.018-.018v-.036l-.018-.018-.018-.018-.018-.018v-.018l-.018-.019v-.054a3.96 3.96 0 00-.326.705zM40.566 10.69l-.018.019h-.018v.018l-.018.018-.018.018-.018.018-.018.018-.019.018-.018.018-.018.018-.018.018-.018.018-.036.037-.037.036-.018.018-.018.018-.018.018-.018.018-.018.018-.018.018-.018.018-.018.018-.019.018v.054a.498.498 0 00-.018.398c.12.17.274.311.453.415a1.07 1.07 0 01-.163-.523c.04-.13.088-.257.145-.38a.39.39 0 00.018-.397zM39.57 11.576c.057.12.124.234.2.343a4.51 4.51 0 00.307-.65c.06-.143.09-.297.09-.452v-.199l-.017-.018V10.546a2.515 2.515 0 01-.182.614c-.15.121-.283.261-.398.416z" fill="#5C6774"/><path d="M38.863 11.955c.145 0 .345-.108.598-.433l.036-.054.037-.055.036-.036.036-.054.018-.054.018-.054.037-.055.018-.054.018-.054.018-.054.018-.054.018-.055.036.019.019-.055.018-.036.018-.036.018-.036.018-.036v-.036l.018-.037v-.252c-.38.65-.779.993-1.087.975-.272-.018-.398-.397-.398-.397a.648.648 0 00-.091.614.692.692 0 00.525.38z" fill="#5C6774"/><path d="M39.37 10.961a.649.649 0 00.254-.379v-.524c-.253.705-.797.65-.797.65a.357.357 0 00.544.253zM40.566 12.804l-.018-.018v-.018l-.018-.018v-.036a.98.98 0 00-.254.813c.07.215.202.404.38.542.127-.24.202-.505.218-.777v-.144l-.018-.018-.018-.018-.018-.018-.018-.018-.018-.019-.019-.018-.036-.036-.036-.036-.036-.036-.036-.036-.037-.036-.018-.018-.018-.018.018-.019zM39.787 12.28c-.054.29.236.452.38.723v-.217l.019-.036.018-.036.018-.036.018-.036.018-.018v-.018l.018-.018.018-.018.019-.018.018-.018.018-.019.018-.018.018-.018.018-.018.018-.018.018-.018a.701.701 0 00-.38-.831c.018.09-.217.398-.272.687zM39.443 11.72l-.018.018-.018.019-.018.018-.018.018-.019.018-.018.018-.018.018-.018.018-.018.018h-.036v.018h-.09c-.02.126-.027.253-.019.38.065.215.143.426.236.632.115-.155.206-.325.271-.506.036-.18.018-.343.036-.434 0 0-.126-.216-.217-.379l-.018.127zM38.537 12.1v.18l.018.037v.036l.019.054.018.054.018.054.018.037.018.018.018.036.018.018.018.036.018.018.019.018.018.018.018.018.018.018v.018l.018.018v.073a.518.518 0 00.2-.253c.022-.162.028-.325.017-.488a.642.642 0 01-.507-.036v.072l.018-.054zM39.08 12.696l-.017.018-.019.018-.018.018-.018.018-.018.018-.018.018-.018.018c.063.071.136.132.217.181a.287.287 0 00.2.054c-.11-.036-.29-.379-.29-.361zM39.733 12.678V12.732l-.018.018-.018.018-.019.018-.018.019-.018.018-.018.018-.018.018-.018.018-.036.036-.036.054-.019.018-.018.018-.018.018-.018.018-.018.018-.018.018-.018.019-.018.018v.018l-.019.018c.024.126.067.248.127.361.09.163.206.31.344.434 0 0 .182-.325.236-.452a.756.756 0 00.036-.38 1.956 1.956 0 01-.362-.433zM40.24 13.87l-.018-.036v-.018l-.018-.018v-.072c-.054.126-.2.253-.272.38a.565.565 0 00-.036.45c.08.165.19.312.326.435.072-.145.2-.326.236-.416a.669.669 0 00.036-.343v-.145l-.018-.018v-.018l-.018-.036-.019-.036-.018-.036-.018-.037-.018-.036-.018-.036-.127.036z" fill="#5C6774"/><path d="M39.497 14.954c.037-.09.11-.198.181-.36a.604.604 0 00.019-.435v-.18l-.019-.036-.018-.037-.018-.036-.018-.036-.018-.036-.018-.036-.018-.036-.018-.036v-.109a8.47 8.47 0 00-.181.398.877.877 0 000 .433.675.675 0 00.126.542zM40.766 15.316a.711.711 0 00-.272-.506l-.018.018-.018.018-.019.018-.018.018-.018.018-.018.018-.018.018-.018.036-.018.037-.018.036-.019.036-.018.036-.018.036-.018.036-.018.036-.018.037-.018.036-.018.036-.018.036v.036l-.018.036v.127c.018.307.217.505.235.686.106-.115.197-.242.272-.38.088-.173.131-.365.127-.56zM39.497 15.406c.05.154.111.305.181.452.119-.172.222-.353.309-.542v-.29l-.019-.035v-.036l-.018-.018V14.9l-.018-.018v-.126c-.435.289-.47.506-.435.65zM42.813 7.222c0 .036.18.072.38.072.217 0 .38-.036.38-.072h-.362c-.217-.073-.398-.036-.398 0zM40.965 6.047v-.18l.018-.054.018-.055.018-.054.018-.054.018-.054v-.018l.018-.018v-.181a.235.235 0 00-.47 0c.165.195.289.423.362.668zM41.599 6.409l.018-.055.018-.036.018-.036.018-.036.018-.036.019-.036.018-.036.018-.037.018-.036.018-.036.018-.036.018-.036.018-.036.018-.036.019-.036.018-.037v-.036l.018-.036V5.47c0-.072-.09-.126-.163-.144a.3.3 0 00-.218 0 3.078 3.078 0 00-.235.993c.107.014.21.044.308.09zM41.092 6.3h.126l.109-.704c.054-.235.127-.47.127-.47-.109.036-.181.145-.236.325-.018.18-.108.596-.127.85zM41.834 6.915l-.036-.019-.018-.018-.018-.018h-.018l-.018-.018h-.49a.814.814 0 00.309.38c.198.11.425.16.652.144a.842.842 0 00-.327-.361l-.036-.09z" fill="#5C6774"/><path fill-rule="evenodd" clip-rule="evenodd" d="M42.178 7.872c-.11.16-.28.27-.47.307-.308.073-.453-.108-.435-.126a.935.935 0 00.597-.271.448.448 0 01-.217-.18.28.28 0 01.181-.091.352.352 0 01-.217-.217c.427.102.865.15 1.304.144.26.004.517-.039.761-.126-.049.742-.501.865-.598.883v-.178a1.994 1.994 0 01-.543.289.559.559 0 01.036-.18.595.595 0 01-.254.09.612.612 0 01.091-.254.497.497 0 01-.254.145.748.748 0 01.019-.235zm.906.323l-.018.002v.055l.018-.019v-.038zm.236-.558a4.5 4.5 0 01-.652-.018h-.037v.072s.49.019.508.253l.018-.018.018-.018h.018V7.89l.018-.018h.018v-.018l.018-.018h-.018v-.018h.018v-.036l.018-.018v-.036l.018-.018V7.69l.019-.018v-.018h.018v-.018z" fill="#5C6774"/><path d="M43.755 7.42v.326l-.019.036v.036l-.018.036v.036l-.018.018-.018.018a.959.959 0 00.272-.307c.054-.145.072-.235-.163-.18l-.036-.019z" fill="#5C6774"/><path fill-rule="evenodd" clip-rule="evenodd" d="M44.66 7.712c.13.258.057.592-.163.745a.655.655 0 00-.815-.086 1.129 1.129 0 00-.326-.127 1.26 1.26 0 01.29-.277c.025-.015.054-.03.086-.046.148-.075.346-.176.421-.422h.018l.018-.021h.036l.019-.021h.163l.018.02h.018l.018.022h.018l.018.021.018.022.018.02.019.022.018.021.018.022.018.021.018.021.018.022.018.02zm-.416.234h-.037c-.054 0-.09.064-.018.213 0 .038.017.073.045.093a.08.08 0 00.091 0 .111.111 0 00.045-.093l-.018-.022v-.085h-.018v-.021h-.018V8.01l-.018-.022h-.018v-.02h-.036v-.022z" fill="#5C6774"/><path d="M43.79 9.046s.2-.307.055-.505a.68.68 0 00-.507-.29v.019l-.018.018v.018l-.018.018v.018l-.019.018v.018l-.018.018-.018.018-.018.036-.018.018-.018.018-.018.018-.018.018h-.018l-.019.019h-.018l-.018.018a.716.716 0 01.707.487zM42.25 8.324a2.995 2.995 0 01-.325.578.585.585 0 00.072.235c.082-.164.185-.316.308-.452.124-.119.258-.228.399-.325h-.163v-.163a1.33 1.33 0 01-.29.127zM43.175 8.27h-.254l-.036.018v.09l-.036.018-.036.018-.019.018h-.036l-.018.018h-.036l-.018.018h-.018a.579.579 0 00-.29.542c.081-.12.186-.225.308-.307.203-.091.374-.243.489-.433zM43.211 6.372h-.036a.24.24 0 00.015.332.24.24 0 00.332 0 .24.24 0 00.015-.332c-.108.01-.218.01-.326 0z" fill="#5C6774"/><path d="M43.447 6.553l-.019.018v.199l-.018.036v.29c.145 0 .127 0 .182.017.11-.157.213-.32.308-.488a.098.098 0 00-.091-.126.397.397 0 00-.362.054zM42.903 7.095c.06 0 .122-.007.181-.018v-.253l-.018-.036v-.253a.325.325 0 00-.235-.072.099.099 0 00-.091.126c-.109.09.127.452.163.506zM43.12 6.3h.163v-.234h.182V5.92h-.182v-.2h-.163v.2h-.18v.145h.18V6.3zM40.856 5.072h.145v-.253h.2v-.127H41v-.199h-.145v.199h-.2v.127h.2v.253zM45.222 7.15v.107c.109-.18.398 0 .398 0-.18-.306-.271-.343-.416-.397-.004.097.002.194.018.29zM44.914 6.59a.986.986 0 00-.054.686v.036l.018.036.018.036v.036l.018.037v.307a.916.916 0 00.145-.596.735.735 0 01.036-.434c.1-.164.156-.35.163-.542a2.553 2.553 0 00-.272-.127.6.6 0 01-.072.524zM44.352 5.885c.12.103.254.188.399.253a.424.424 0 00.2.018 1.585 1.585 0 00-.508-.325.275.275 0 00-.272.072c-.018-.109.054-.127.181-.018zM44.244 6.933a.306.306 0 01-.127.216s.344-.09.38-.289a.647.647 0 00-.09-.433c-.055-.09-.218-.325-.254-.416a.303.303 0 01-.036-.199l-.018.019-.018.018-.019.018-.018.018-.018.018-.018.018V6.083c.04.158.1.31.181.452-.018.127.073.253.055.398zM41.58 8.757c-.03.196-.005.396.073.579.005-.187.061-.368.163-.524l.018-.037.018-.036.019-.036.018-.036.018-.036.018-.036.018-.036.018-.037.018-.036.018-.036.018-.036.018-.036.019-.036.018-.036.018-.055.018-.036a.903.903 0 00-.525.542zM41.418 8.721c.132-.127.237-.281.307-.451h-.416a.847.847 0 00-.326.542.41.41 0 00.435-.09zM43.175 8.74h-.127a1.257 1.257 0 00-.417.36.803.803 0 01-.235.2c.083.187.12.391.109.596h.018a2.32 2.32 0 00.253-.615.673.673 0 01.181-.361c.019-.127.218-.18.218-.18zM42.16 9.751a.62.62 0 00-.253-.506v.18l-.018.037-.019.036v.325c.073.253.236.362.345.56-.109.018-.037-.343-.055-.632zM40.965 8.884c-.073.036-.326.162-.326.343-.019.18.326.542.326.687v-.055l.018-.018v-.018L41 9.805l.018-.018.018-.018.018-.018.018-.018.019-.018.018-.018.018-.018.036-.054.036-.055.018-.018.018-.036.019-.018.018-.018.018-.018.018-.018.018-.018v-.127a.705.705 0 00-.362-.415zM41.454 9.245V9.3l-.018.018v.018l-.018.019v.018l-.018.018-.019.018-.018.036-.018.018-.018.018-.018.036-.018.054-.018.055-.018.036v.018l-.019.018v.036l-.018.018v.09a.472.472 0 00.073.398c.134.135.25.287.344.451a.935.935 0 00.163-.289 1.146 1.146 0 00-.036-.433 2.967 2.967 0 01-.308-.723zM40.965 10.98l.018-.018.018-.018.018-.018.018-.018.018-.019.018-.018.019-.018.018-.018.018-.018.018-.018v-.072a.282.282 0 00-.036-.29.926.926 0 01-.2-.324c0 .09-.108.216-.199.325a.337.337 0 00-.036.289c.072.036.163.162.29.253zM41.69 11.142l-.019-.018v-.018l-.018-.018v-.018l-.018-.018-.018-.018-.018-.018-.018-.018-.019-.018-.018-.018-.018-.018-.036-.037-.036-.036-.018-.018-.018-.018-.018-.018-.019-.018-.018-.018-.018-.018-.018-.018-.018-.018-.018-.018v-.018a.508.508 0 00-.055.38c.019.09.145.216.145.379a1.068 1.068 0 01-.163.523c.176-.11.33-.25.453-.415.09-.127.018-.307-.018-.398l.036-.018zM41.87 10.492l-.018.018V10.564l-.018.018v.199c.003.155.034.308.09.452.086.224.189.442.309.65.075-.109.142-.224.2-.343a3.403 3.403 0 01-.29-.47 1.202 1.202 0 01-.273-.578z" fill="#5C6774"/><path d="M43.519 11.576a.604.604 0 00-.09-.614s-.127.38-.4.397c-.307.018-.688-.325-1.068-.976v.29l.018.036.018.036.018.036.018.036.019.036.018.055.018.036.018.054.018.054.018.054.018.054.019.055.018.054.036.054.036.054.036.054.037.037.036.054.036.054c.254.325.471.434.598.434a.728.728 0 00.507-.434z" fill="#5C6774"/><path d="M42.287 10.13v.488a.648.648 0 00.254.38.39.39 0 00.543-.181.977.977 0 01-.797-.687zM40.711 11.829a.387.387 0 00.236.199h.108v-.073l.018-.018a.643.643 0 00.091-.451c-.054-.181-.145-.235-.2-.362a.794.794 0 01-.126.109.79.79 0 01-.127-.109 1.606 1.606 0 00-.2.362c.073.036.146.234.2.343zM40.965 12.118c-.145.108-.308.054-.363.325-.036.18.327.506.363.669v-.073l.018-.018.018-.018.018-.018.018-.018.018-.018.018-.018v-.036l.019-.018.036-.055.036-.054.036-.054.018-.018.018-.018.019-.018.018-.018.018-.018.018-.018.018-.018v-.09c-.072-.326-.235-.272-.362-.38zM41.381 12.732l-.018.018v.018l-.018.018-.018.019-.018.018-.018.018-.018.018-.037.036-.036.036-.036.036-.036.036-.036.036-.019.018-.018.018-.018.019-.018.018-.018.018v.018l-.018.018v.126c.017.272.09.536.217.777.179-.138.311-.327.38-.542a.749.749 0 00-.199-.795zM41.834 11.684a.698.698 0 00-.38.831l.018.018.018.019.018.018.018.018.018.018.019.018.018.018.018.018.018.018.018.018.018.018.018.018-.054-.018.018.036.018.036.018.037v.216c.145-.253.453-.433.38-.722a1.104 1.104 0 00-.217-.633zM42.74 12.01l-.018-.018h-.054l-.018-.019h-.019l-.018-.018-.018-.018-.018-.018-.018-.018-.018-.018-.018-.018-.019-.018-.018-.018-.018-.018-.018-.018c-.072.144-.217.38-.217.38-.002.145.01.29.036.433.058.184.15.356.272.506.103-.201.182-.414.235-.633.021-.157.009-.317-.036-.47zM43.12 12.732l.019-.036v-.018l.018-.018.018-.018.018-.018.018-.036.018-.018.018-.037.018-.018.018-.036.019-.054.018-.054.018-.054.018-.037v-.325a.642.642 0 01-.507.037c-.02.162-.014.327.018.487a.518.518 0 00.2.253v-.054l.017-.018.036.072zM43.03 12.877l-.018-.018-.018-.018-.018-.018-.019-.018-.018-.019-.018-.018s-.181.344-.217.434a.237.237 0 00.181-.054.343.343 0 01.145-.271zM42.178 12.678c-.09.18-.307.38-.362.506a.488.488 0 00.036.38c.07.154.149.305.236.45.144-.118.261-.266.344-.433.06-.113.103-.235.127-.361v-.018l-.018-.018-.018-.018-.019-.018-.018-.018-.018-.018-.018-.018-.018-.018-.018-.019-.018-.018-.036-.054-.037-.036-.018-.018-.018-.018-.018-.018-.018-.018-.018-.018-.018-.018-.019-.018v-.019l-.018-.018v-.108zM40.947 13.87c-.019.073-.218.344-.272.452a.381.381 0 000 .343c.072.199.235.326.272.452V14.955l.018-.019v-.018l.018-.018.018-.036.018-.036.018-.036.018-.036.018-.036.019-.019v-.018l.018-.018v-.09a.555.555 0 000-.343c.054-.018-.127-.271-.163-.362zM41.617 13.943l-.018.036-.018.036-.018.036-.019.036-.018.036-.018.018v.037l-.018.018v.108a.721.721 0 00.036.343c.037.09.163.271.236.416a1.43 1.43 0 00.326-.434.644.644 0 00-.036-.451c-.073-.127-.218-.253-.272-.38v.09l-.018.018v.019l-.018.018-.018.018-.018.018-.091-.036zM42.486 13.726l-.018.036v.072l-.018.036-.018.037-.018.036-.018.036-.018.036-.018.036-.018.036-.019.036v.181a.604.604 0 00.019.434c.072.162.144.253.18.36.097-.124.182-.257.254-.397a.709.709 0 000-.433c-.145-.271-.235-.434-.29-.542zM40.965 17.285v-.108l.018-.037.018-.018.018-.036.018-.036.018-.036.018-.036.019-.036.018-.036.018-.037.018-.036.018-.036.018-.036.018-.036.018-.036.018-.036.019-.037.018-.036.018-.036v-.253a1.32 1.32 0 00-.308-.722 1.467 1.467 0 00-.308.722c.035.346.133.683.29.994zM41.544 16.183c.037-.18.236-.38.236-.687v-.198l-.018-.037-.018-.036-.018-.036-.018-.036-.019-.036-.018-.036-.018-.036-.018-.036-.018-.037-.018-.036-.018-.036-.019-.036-.018-.018-.018-.018-.018-.018-.018-.018-.018-.018-.018-.018-.018-.018a.71.71 0 00-.272.505.735.735 0 00.127.506c.053.16.14.308.253.434zM42.106 14.756l-.018.018v.09l-.018.018v.054l-.018.018v.037l-.019.036v.289c.078.19.176.371.29.542a3.7 3.7 0 00.181-.452 1.484 1.484 0 00-.398-.65z" fill="#5C6774"/><path d="M40.947 18.207c.03.052.066.1.108.144.254.235.399.217.544.163 0 0-.399-.127-.38-.488v-.29l.017-.035v-.055l.019-.036.018-.018v-.018l.018-.054.018-.036.018-.036.018-.036.018-.037v-.144a.767.767 0 00-.127-.632 5.788 5.788 0 01-.385.988.018.018 0 01-.013.005v-.018a5.788 5.788 0 01-.38-.975.707.707 0 00-.127.632c.118.234.203.483.253.74.018.362-.38.488-.38.488.145.055.29.073.543-.162.145.018.181-.036.2-.09zM39.86 16.616c.253-.18.308-.36.272-.487v-.199l-.019-.036-.018-.036-.018-.037-.018-.036-.018-.036v-.144a3.142 3.142 0 01-.272.361.264.264 0 00-.036.307.374.374 0 00.127.343zM40.44 16.526l.018-.054v-.253c-.19.319-.484.561-.834.686a.421.421 0 00-.272.308c.091.054.145.162.327.162a.815.815 0 00.597-.488v-.018l.018-.018v-.018l.019-.018v-.054l.018-.036v-.036l.018-.055.09-.108z" fill="#5C6774"/><path d="M38.882 17.177c.137.03.279.03.416 0a.599.599 0 01.236-.344c.099-.035.196-.077.29-.126l-.019-.018h-.018c-.131.05-.259.11-.38.18a.71.71 0 00-.525.308zM38.646 16.852c.16-.033.317-.075.47-.127.158-.058.31-.13.454-.217v-.361a4.057 4.057 0 00-.453.307c-.182.1-.342.235-.471.398zM38.12 17.52a2.45 2.45 0 01.472-.235c.163-.054.235-.235.398-.397h-.235l-.055.018-.054.018-.054.018-.055.018-.054.018-.054.018h-.218a.97.97 0 00-.47.325c-.019.072.235.145.38.199zM37.54 17.665c-.017.036 0 .072.055.072.127.018.399-.036.471.018.073.054.055.108.055.18a.4.4 0 01.217-.054c.109.018.181.072.254.271V18.098a.627.627 0 00-.272-.199c-.145-.072-.58-.18-.725-.235.055-.162-.018-.09-.054 0z" fill="#5C6774"/><path d="M38.23 17.556h.344l.018.018h.036a.325.325 0 00.109-.09c.036-.054.18-.271.308-.307a.487.487 0 01-.182-.037s-.126.037-.235.073c-.118.13-.252.245-.399.343zM38.737 17.827a.342.342 0 00.126.361c.055.037.326.127.49-.216 0 0-.29.09-.363-.036a.38.38 0 01.127-.398.668.668 0 01.399-.108.883.883 0 00-.2-.145h-.018c-.145.036-.525.29-.561.542zM36.87 20.176l.019-.072.018-.073v-.036l.018-.036.018-.036.018-.036.018-.036.019-.037.018-.036.018-.036.018-.036.018-.036c.163-.361.58-1.319 1.45-1.482.072-.018-.091-.216-.182-.216-.11.033-.213.081-.308.144v-.235c0-.036-.036-.054-.072-.054-.037 0-.236 0-.308.072-.292.405-.535.841-.725 1.301-.181.452-.326.597-.525.524-.2-.072-.308-.307-.67-.235a.7.7 0 00-.363.217.23.23 0 00.236.127c.228.011.45.073.652.18.177.116.385.18.597.18l.019-.017z" fill="#5C6774"/><path d="M39.57 18.586a.689.689 0 00-.308.434c.96-.09 1.214-1.301 1.214-1.301l-.018-.036-.019-.037-.018-.036-.018-.036-.018-.018-.018-.036-.018-.036-.018-.036-.019-.036v-.018l-.017-.037v-.18a.767.767 0 00-.327.325 1.95 1.95 0 01-.58.506.73.73 0 00-.271.361c.453 0 .76-.488.888-.668.126-.163.217-.181.217-.181.013.453-.242.87-.652 1.066zM40.421 22c-.054-.072-.199-.289-.398-.56l-.163.253.58.813.434-.776-.163-.29a3.87 3.87 0 01-.29.56zM38.157 19.326l1.395 1.952.163-.253-.109-.145-.109-.162-.109-.145-.108-.162-.109-.145-.108-.162-.055-.073-.036-.054-.054-.072-.055-.072-.036-.073-.054-.054-.036-.073-.055-.053-.036-.054-.036-.055-.037-.054-.035-.037-.02-.035-.035-.054-.018-.037-.019-.018-.017-.036-.018-.018-.019-.018.218-.163-.688-.27v.758l.235-.163zM35.258 17.321c.29.271.598.416.743.235.163-.18-.018-.47-.308-.723l-.036-.018-.036-.018-.019-.018-.036-.018-.036-.018-.036-.018-.036-.018-.037-.018-.018-.018-.036-.018-.036-.018-.018-.018-.037-.018-.018-.018-.036-.018-.018-.019h-.217l-.019.018-.018.019-.018.018-.018.018c-.127.162.054.433.344.704z" fill="#5C6774"/><path d="M36.074 20.104c0-.09-.073-.109-.145-.109a.985.985 0 01-.508-.108.797.797 0 01-.141-.965.802.802 0 011.5.387.962.962 0 01-.018.144c.036-.072.163-.361.2-.415a1.013 1.013 0 00-1.885-.181c.052-.33.19-.642.399-.903.13-.11.286-.184.453-.217-.2.036-.435-.09-.725-.343a1.052 1.052 0 01-.417-.633c.03.2.011.405-.054.596-.208.42-.302.888-.272 1.355.099.45.332.86.67 1.175a.783.783 0 01.127.289s.562 0 .707.018c-.018 0 .108-.018.108-.09zM38.501 20.104l-.072.018-.073.018-.072.018-.073.018-.072.018-.073.018-.072.018-.073.018-.072.018-.073.018-.072.018-.127.018-.127.018a2.64 2.64 0 01-.652.037.232.232 0 00.018.216c.224.006.448-.006.67-.036a4.872 4.872 0 001.178-.289l-.127-.18-.036.018zM39.244 19.995l.09-.054.09-.054.092-.055.09-.072.09-.072.091-.072.09-.072.091-.09.091-.091.09-.09.091-.09.09-.11.091-.108.073-.108.036-.054.036-.055.073-.126a.488.488 0 01-.272.018c0 .018-.036.036-.036.054a3.583 3.583 0 01-1.287 1.193l.127.18.073-.072zM35.965 20.248h-.471c-.145.018-.308.054-.326.127-.018.072.036.144.108.27.055.073.145.037.2 0 .154-.066.3-.151.434-.252.127-.037.164-.127.055-.145zM36.31 20.483l-.019-.018c-.09.036-.417.235-.435.307-.018.09.018.145.073.163.052.02.107.033.163.036a.26.26 0 00.199-.09 3.57 3.57 0 01.217-.271c-.18-.055-.163-.109-.199-.127z" fill="#5C6774"/><path d="M36.345 20.664l-.018.018v.018l-.018.018-.018.018v.018c-.018.018 0 .072.054.054.138-.013.273-.05.399-.108.127-.09.217-.253.127-.307a1.198 1.198 0 00-.526.27z" fill="#5C6774"/><path d="M36.4 20.194h-.11c-.053.072-.017.144.128.198.127.055.38.109.416.055a.734.734 0 00-.434-.253zM42.034 16.616a.966.966 0 00.235-.27.291.291 0 00-.036-.308 1.884 1.884 0 01-.272-.361v.145l-.018.036-.018.036-.018.036-.018.036-.019.036V16.201c-.126.054-.09.235.164.415zM42.25 16.887a1.786 1.786 0 01-.832-.686v.235l.018.054.018.054.018.054v.09l.018.019v.036l.018.018.018.018v.018c.163.271.399.488.598.488.181 0 .236-.108.326-.163.054.073.018-.18-.2-.235zM43.03 17.177a2.979 2.979 0 00-.417-.398 1.868 1.868 0 00-.38-.18l-.018.017h-.018c.099.037.195.079.29.127.117.083.2.204.235.343.054.145.308.09.308.09zM42.867 16.454a7 7 0 00-.453-.307V16.49c.147.093.305.166.47.217.155.052.313.094.472.126a2.527 2.527 0 01-.49-.379zM43.428 16.996l-.054-.018-.054-.018-.055-.018-.054-.018-.054-.018h-.218c.163.162.236.325.399.397.165.061.323.14.47.235.146-.054.4-.126.4-.126a1.167 1.167 0 00-.472-.326h-.217l-.09-.09z" fill="#5C6774"/><path d="M43.537 17.737c-.09.036-.254.126-.272.199V17.99c.073-.181.127-.235.254-.271a.4.4 0 01.217.054c0-.054-.018-.127.055-.18.072-.055.362 0 .47-.019a.066.066 0 00.073-.072.554.554 0 00-.108-.163c-.11.199-.544.307-.689.398z" fill="#5C6774"/><path d="M43.32 17.7l.036-.017.018-.018h.326a2.622 2.622 0 00-.362-.2 2.335 2.335 0 00-.236-.072c-.072.018-.18.037-.18.037.131.068.239.175.307.307a.08.08 0 01.09-.036z" fill="#5C6774"/><path d="M43.048 18.189a.327.327 0 00.145-.362c-.036-.253-.417-.506-.417-.506h-.018a.881.881 0 00-.2.145.636.636 0 01.4.108.327.327 0 01.126.398c-.09.144-.362.036-.362.036 0 .307.272.199.326.18zM46.526 19.742a.597.597 0 00-.362-.216c-.344-.073-.471.162-.67.234-.2.073-.327-.072-.526-.524a6.067 6.067 0 00-.724-1.3c-.073-.073-.272-.073-.308-.073-.037 0-.055.018-.073.055v.216c-.072-.036-.217-.144-.308-.144-.072-.018-.253.18-.163.217.87.162 1.286 1.12 1.45 1.481l.017.036.019.036.018.037.018.036.018.036.018.036.018.036v.036l.018.036.019.036.018.073.018.072.018.072c.212-.005.419-.067.598-.18.198-.116.422-.178.652-.181a.311.311 0 00.217-.163zM41.87 17.827c.127.163.435.65.888.669a.729.729 0 00-.272-.362 1.952 1.952 0 01-.58-.506.767.767 0 00-.325-.325v.217l-.019.018-.018.036v.036l-.018.037-.018.036-.018.018-.018.036-.018.036-.036.054s.271 1.21 1.213 1.301a.61.61 0 00-.308-.434c-.29-.198-.706-.487-.67-.94 0-.108.073-.09.218.073zM41.526 19.273l-.036-.037-.018-.018-.018-.018-.018-.018-.018-.018-.018-.018-.019-.036-.018-.036-.018-.036-.018-.037-.018-.036-.036-.054-.037-.054-.036-.054-.018-.036-.018-.037-.018-.036-.018-.036-.018-.036-.018-.036-.019-.036-.018-.036-.018-.018-.018-.018-.018-.019v-.054a3.376 3.376 0 01-.58.813c-.163.145-.543.524-.742.723.33-.085.639-.239.905-.452a1.1 1.1 0 00.399.127H41a1.1 1.1 0 00.399-.127c.272.215.587.37.923.452a5.017 5.017 0 01-.797-.668z" fill="#5C6774"/><path d="M41.255 19.742h-.29a.776.776 0 01-.326-.09c.076.176.187.336.326.47.108-.019.235-.253.29-.38z" fill="#5C6774"/><path d="M43.972 19.49l.018-.741-.688.27.217.163c-.109.163-1.83 2.548-2.047 2.855l-1.033-1.88-.126.2-.924 1.39-.236-.144v.74l.707-.27-.236-.163c.127-.18.634-.94.797-1.192l1.033 1.843 2.282-3.198.236.126z" fill="#5C6774"/><path d="M41.49 20.682l.018.018.018.018v.036l.018.018v.018l.019.018.018.018v.018l.018.018.018.018.018.037.036.036.018.036.037.036.036.036.036.036.036.036.036.037.055.09.181-.235-.453-.687-.127-.198-.453.795.163.289c.068-.189.153-.37.254-.542zM42.505 21.711l-.163-.252-.182.234c.04.052.077.106.11.163l-.236.163.706.27v-.74l-.235.162zM46.653 17.321c.29-.27.471-.542.308-.722l-.018-.018-.018-.018-.018-.019-.018-.018h-.218l-.036.018-.018.018-.018.019-.037.018-.018.018-.036.018-.036.018-.036.018-.019.018-.036.018-.036.018-.036.018-.036.018-.037.018-.036.018-.036.018c-.29.271-.471.542-.308.723.2.199.489.054.797-.217z" fill="#5C6774"/><path d="M47.124 16.761a.974.974 0 01-.417.633 1.015 1.015 0 01-.724.343c.167.033.323.107.453.217.223.252.363.568.398.903a.994.994 0 00-.924-.56 1.01 1.01 0 00-.978.74c.036.055.163.362.2.416a.96.96 0 01-.019-.144.803.803 0 01.797-.795.793.793 0 01.797.795.803.803 0 01-.235.578.987.987 0 01-.507.108c-.055 0-.145.018-.145.109 0 .09.126.09.126.09.127-.018.707-.018.707-.018a.446.446 0 01.127-.29c.331-.318.564-.726.67-1.174a2.489 2.489 0 00-.272-1.354 2.025 2.025 0 01-.054-.597zM42.378 19.833l.09.054.09.054.092.054.09.054.127-.18a3.582 3.582 0 01-1.286-1.193c0-.018-.019-.036-.037-.054a.483.483 0 01-.271-.018l.072.126.036.055.037.054.09.108.09.109.091.108.09.09.091.09.091.091.09.09.091.073.09.072.091.072.055.09zM44.425 20.338l-.127-.018-.127-.018-.072-.018-.073-.018-.072-.018-.073-.018-.072-.018-.072-.018-.073-.018-.072-.018-.073-.018-.072-.018-.073-.018-.072-.018-.127.18c.384.128.778.225 1.177.29.222.038.447.05.67.035a.232.232 0 00.019-.216c-.181 0-.399-.018-.616-.037zM46.345 20.266h-.38c-.091.018-.073.109-.037.163.137.097.283.182.435.253.054.018.163.054.2 0 .072-.109.126-.181.108-.271-.036-.09-.181-.127-.326-.145zM45.82 20.447h-.018c-.037.018-.019.09 0 .126.065.096.138.186.217.271a.26.26 0 00.2.09.531.531 0 00.162-.036c.055-.018.09-.072.073-.162a3.632 3.632 0 01-.634-.29zM45.747 20.898l-.018-.018-.018-.018-.018-.018-.018-.018v-.018c-.145-.162-.29-.199-.363-.126-.09.054 0 .235.127.307a.816.816 0 00.38.108.648.648 0 01-.072-.199zM45.73 20.176h-.164c-.272.072-.344.18-.29.253.054.072.29.018.417-.054.127-.055.163-.127.127-.2h-.09z" fill="#5C6774"/></svg>