<svg width="95" height="19" fill="none" xmlns="http://www.w3.org/2000/svg"><path d="M24.845 14.824h69.222v.767H24.845v-.767z" fill="#5C6774"/><path fill-rule="evenodd" clip-rule="evenodd" d="M31.533 11.529a1.116 1.116 0 01-.466.153 2.432 2.432 0 00-.622.153 2.433 2.433 0 01-.778.077 2.367 2.367 0 01-1.4-.306 2.234 2.234 0 01-.856-.843 5.115 5.115 0 01-.466-1.303 11.697 11.697 0 01-.078-1.686 8.202 8.202 0 01.078-1.38c.057-.443.162-.88.31-1.302.145-.386.42-.71.778-.92a2.335 2.335 0 011.4-.383c.494-.002.978.13 1.4.383.425.305.683.785.7 1.303h.623v-1.84a5.414 5.414 0 00-.623-.23c-.116-.038-.233-.057-.35-.076-.116-.02-.233-.038-.35-.077-.108 0-.216-.016-.332-.034a2.84 2.84 0 00-.445-.042h-.7a8.74 8.74 0 00-2.178.306c-.555.196-1.06.51-1.478.92-.42.426-.715.956-.855 1.533a8.276 8.276 0 00-.312 2.069c-.03.653.076 1.305.311 1.916.196.515.457 1.005.778 1.456.403.392.878.704 1.4.92a5.338 5.338 0 002.023.306c.364.015.73-.01 1.088-.077.312-.076.623-.153.856-.23.237-.065.47-.141.7-.23.205-.055.392-.16.544-.306l-.31-.537c-.06.178-.167.218-.284.263-.035.013-.07.027-.106.044zm8.245-4.292a4.265 4.265 0 00-1.322-.536 12.278 12.278 0 00-1.945-.23h-.778V4.325a.642.642 0 01.156-.46c.078-.076.311-.076.622-.076h2.022c.192.004.38.057.545.153.128.063.203.178.313.345l.076.115c.117.25.22.506.31.766h.468V3.176h-7.078v.306c.06.006.115.033.155.077.04.038.078.057.117.077.039.019.078.038.117.076.06.061.088.146.077.23V11.76c0 .038-.02.076-.039.115a.269.269 0 00-.038.115.406.406 0 01-.117.076c-.039.02-.078.039-.117.077a.273.273 0 00-.155.077v.306h3.578c.493.013.988-.013 1.477-.076a2.964 2.964 0 001.245-.384c.384-.225.705-.54.933-.92a3.445 3.445 0 00.311-1.685 3.259 3.259 0 00-.233-1.303 1.37 1.37 0 00-.7-.92zm-1.711 4.369c.175-.23.307-.49.389-.767.104-.426.156-.864.155-1.303a2.913 2.913 0 00-.466-1.839 1.839 1.839 0 00-1.556-.613h-.856v4.368c.03.059.048.106.064.147a.402.402 0 00.092.16c.075.095.19.15.311.153.173.069.36.095.544.077.236.012.473-.014.7-.077a.71.71 0 00.623-.306zm9.8-.307a.703.703 0 01-.311.46c-.175.09-.358.167-.545.23h-1.789a.664.664 0 01-.466-.154 1.057 1.057 0 01-.234-.306V8.08h2.1c.078 0 .156.02.234.039.077.019.155.038.233.038a.599.599 0 01.389.153V7.16a.599.599 0 01-.39.154.99.99 0 00-.232.038c-.078.02-.156.039-.234.039h-2.178V4.325c0-.23 0-.306.078-.383.078-.077.156-.077.39-.077h1.866c.192.005.379.058.544.154.128.063.204.178.313.345l.076.115c.117.25.221.505.311.766h.467V3.252h-6.611v.307c.06.005.115.033.155.077.04.038.078.057.117.076.039.02.078.038.117.077.06.061.088.145.077.23v7.816c0 .039-.019.077-.038.115-.02.039-.04.077-.04.115-.038.039-.077.058-.116.077a.407.407 0 00-.117.077.274.274 0 00-.155.076v.307h6.844v-2.146H48.1c-.078.307-.156.613-.233.843zm7.155-7.97c.378.081.744.21 1.09.383.33.15.582.427.7.767.237.447.345.951.31 1.456a3.002 3.002 0 01-.31 1.532 1.855 1.855 0 01-.779.92c-.367.185-.76.314-1.166.383-.464.064-.932.09-1.4.077h-.934v2.989a.28.28 0 00.078.23c.078.076.156.153.233.153.04.043.096.07.156.076v.307h-3.111v-.307a.274.274 0 01.155-.076.407.407 0 01.117-.077c.039-.02.078-.038.117-.077 0-.038.02-.076.039-.114a.269.269 0 00.039-.116V4.02a.279.279 0 00-.078-.23.408.408 0 00-.117-.077c-.039-.019-.078-.038-.117-.076a.242.242 0 00-.155-.077v-.307H53.7c.442-.015.885.011 1.322.077zm-.31 4.368c-.265.42-.746.657-1.245.613h-.934V4.172a.266.266 0 01.078-.153.792.792 0 01.233-.077h.39c.235-.012.472.013.7.077.204.055.392.16.544.306.173.174.306.383.389.613.102.323.154.659.155.997a3.005 3.005 0 01-.31 1.762zm8.71-.92c.472.047.926.204 1.323.46.38.205.639.574.7.997.166.414.245.857.233 1.302a3.447 3.447 0 01-.311 1.686c-.229.379-.55.695-.934.92-.38.218-.805.35-1.244.383-.49.064-.984.09-1.478.077h-3.578v-.307a.274.274 0 01.156-.076.406.406 0 01.117-.077c.038-.02.077-.038.116-.077a.27.27 0 01.04-.114.269.269 0 00.038-.116V4.02a.279.279 0 00-.078-.23c-.078-.077-.155-.153-.233-.153a.242.242 0 00-.156-.077v-.307h7.078v1.993h-.466a7.89 7.89 0 00-.312-.766 8.28 8.28 0 01-.076-.115c-.11-.167-.184-.282-.313-.345a1.137 1.137 0 00-.544-.154h-2.022c-.311 0-.545 0-.622.077a.642.642 0 00-.156.46v2.222h.778c.65.004 1.3.055 1.944.154zm0 4.062a2.383 2.383 0 01-.389.767.965.965 0 01-.622.306c-.227.063-.464.09-.7.077a1.17 1.17 0 01-.544-.077.406.406 0 01-.311-.153c-.049-.048-.067-.095-.092-.16-.016-.04-.034-.088-.064-.147V7.161h.778a1.82 1.82 0 011.555.536c.348.522.512 1.14.467 1.763.063.46.036.928-.078 1.38zm17.656-7.51h2.566l.623-.077v.307a.273.273 0 01-.156.077.407.407 0 01-.117.076.408.408 0 00-.116.077c0 .038-.02.076-.04.115-.018.038-.038.076-.038.115V11.912a.28.28 0 00.078.23c.078.077.155.153.233.153.04.044.096.071.156.077v.306h-3.111v-.306a.273.273 0 01.155-.077c.039-.038.078-.057.117-.076a.406.406 0 00.117-.077c0-.038.019-.077.038-.115.02-.038.04-.076.04-.115V8.004h-3.656v3.908a.279.279 0 00.078.23c.077.077.155.153.233.153.04.044.096.071.155.077v.306h-3.11v-.306a.273.273 0 01.155-.077c.039-.038.078-.057.117-.076a.406.406 0 00.116-.077.27.27 0 01.039-.115.269.269 0 00.039-.115V4.095a.28.28 0 00-.078-.23c-.039-.038-.078-.057-.117-.076a.407.407 0 01-.116-.077.242.242 0 00-.156-.076v-.307h3.034v.307a.242.242 0 00-.156.076.407.407 0 01-.117.077c-.038.019-.077.038-.116.076 0 .039-.02.077-.04.115-.019.039-.038.077-.038.115v3.142h3.656V4.095a.279.279 0 00-.078-.23.407.407 0 00-.117-.076.407.407 0 01-.117-.077.242.242 0 00-.155-.076v-.307zm-7.156 7.127l-2.177-6.054a3.53 3.53 0 00-.234-.69c0-.076-.02-.153-.039-.23a.946.946 0 01-.039-.23h-2.722v.307c.06.005.115.033.156.077a.407.407 0 00.116.076c.04.02.078.038.117.077.06.061.088.145.078.23v.23c0 .126-.024.253-.045.367a1.466 1.466 0 00-.033.246L67.545 8.54c-.312.69-.545 1.226-.7 1.686-.152.397-.334.78-.545 1.15a7.092 7.092 0 01-.389.766l-.045.096c-.066.14-.14.302-.266.364h1.711a4.81 4.81 0 01.233-1.15c.195-.727.428-1.443.7-2.145h3.034l.389 1.072c.132.468.287.928.466 1.38.077.276.129.558.156.843H74.7l-.389-.767a4.16 4.16 0 00-.389-1.379zm-4.044-5.594l-1.322 3.831h2.566l-1.244-3.831zm23.41 6.667c-.166-.164-.31-.329-.444-.481a7.022 7.022 0 00-.333-.362 9.254 9.254 0 01-.428-.46 9.244 9.244 0 00-.427-.46 6.686 6.686 0 01-.7-.843 5.847 5.847 0 01-.623-.843c-.116-.153-.213-.306-.31-.46a6.391 6.391 0 00-.312-.46l.156-.152c.233-.307.466-.614.777-.997.292-.373.604-.732.934-1.073.317-.35.655-.683 1.01-.996.263-.257.55-.488.857-.69h-2.256c-.032.064-.064.14-.102.23-.054.127-.118.28-.21.46-.152.298-.335.58-.544.843-.224.321-.432.654-.622.996l-.7.92a8.027 8.027 0 01-.622.843c-.129.127-.21.253-.283.367-.06.093-.114.177-.184.246V4.019c0-.039.02-.077.04-.115.019-.039.038-.077.038-.115a.408.408 0 01.117-.077.407.407 0 00.116-.076.273.273 0 00.156-.077v-.307h-3.111v.307c.06.005.115.033.155.077a.407.407 0 00.117.076c.039.02.078.038.117.077.06.061.088.145.078.23v7.816c0 .039-.02.077-.04.115a.269.269 0 00-.038.115c-.04.039-.078.058-.117.077a.407.407 0 00-.117.077.274.274 0 00-.155.076v.307h3.11v-.307a.241.241 0 01-.155-.076.406.406 0 00-.116-.077c-.04-.02-.078-.038-.117-.077a.28.28 0 01-.078-.23V8.157c.234.307.467.613.623.843a4.2 4.2 0 00.272.345c.097.115.194.23.272.345l.467.69.466.69c.173.244.329.5.467.765.159.213.29.445.389.69h3.189a7.007 7.007 0 00-.778-.996z" fill="#5C6774"/><path d="M7.033 5.781L15.2 1.107A4.78 4.78 0 0014.111.57L6.956 4.632l-3.19-1.763c-.23.236-.438.493-.622.767l3.89 2.145z" fill="#5C6774"/><path d="M7.033 8.004l9.956-5.595c-.233-.23-.544-.46-.778-.69l-9.1 5.135-4.355-2.452c-.156.306-.311.536-.467.843l4.744 2.759z" fill="#5C6774"/><path d="M7.033 10.303l11.2-6.36a3.01 3.01 0 00-.622-.767L7.033 9.153 1.9 6.241c-.078.307-.156.69-.233.996l5.366 3.066z" fill="#5C6774"/><path d="M7.033 11.452L1.511 8.31v.613c-.028 3.222 1.7 6.21 4.527 7.83a9.218 9.218 0 009.146 0c2.827-1.62 4.555-4.608 4.527-7.83A8.736 8.736 0 0018.7 4.862l-11.667 6.59z" fill="#5C6774"/></svg>