<svg width="90" height="21" fill="none" xmlns="http://www.w3.org/2000/svg"><path fill-rule="evenodd" clip-rule="evenodd" d="M10.5 6.311V3.907a10.729 10.729 0 00-4.044-.776c-3.112 0-6.378 1.164-6.378 4.5 0 3.18 3.344 4.42 6.455 4.42a9.412 9.412 0 004.045-.775V8.87c-.86.366-1.787.55-2.722.543-1.323 0-2.8-.465-2.8-1.862 0-1.396 1.322-1.939 2.644-1.939a10.55 10.55 0 012.8.698zm28.544 2.017h2.878c.934 0 1.167.31 1.167.62 0 .621-.622.854-1.711.854a17.583 17.583 0 01-4.045-.62l-.31 2.016c1.687.519 3.444.78 5.21.776 2.878 0 5.911-.698 5.911-2.56 0-1.319-1.4-1.862-2.644-1.94v-.077a2.08 2.08 0 001.944-1.861c0-1.707-2.41-2.327-4.9-2.327a19.84 19.84 0 00-5.133.775l.233 1.94a16.964 16.964 0 013.812-.621c1.01 0 1.477.155 1.477.698 0 .388-.233.62-1.01.62h-2.956l.077 1.707zM15.79 6.777V5.225h2.178c.544 0 1.088.156 1.088.776s-.544.776-1.088.776h-2.178zm16.1.388h-2.1c-.934 0-1.322-.466-1.322-.931 0-.466.31-.931 1.322-.931h2.1v1.862zm-16.1 1.008v1.629h2.255c.778 0 1.245-.155 1.245-.776 0-.62-.467-.853-1.245-.853H15.79zm51.097 1.079c.47.41 1.09.61 1.714.55a2.317 2.317 0 001.703-.564c.468-.409.751-.988.786-1.608 0-1.706-1.4-2.25-2.489-2.25s-2.489.544-2.489 2.25c.023.624.303 1.21.775 1.622zm-13.608 2.334h-4.59V3.52h4.59V6.31h3.11V3.52h4.59v8.067h-4.59V8.561h-3.11v3.025zm26.91 0l4.745-4.034v4.034h4.511V3.52h-3.966l-4.745 4.033V3.52h-4.51v8.067h3.966zM30.256 8.871l-1.633 2.715-4.822.078 2.411-3.258c-1.167-.31-2.178-1.009-2.178-2.172 0-2.715 3.267-2.948 6.845-2.948a49.975 49.975 0 015.366.233v8.067H31.89V8.871h-1.633zm-18.084 2.77h.002c1.79.135 3.39.255 5.171.255 2.878 0 6.611-.155 6.611-2.404 0-1.319-1.477-2.017-2.722-2.017v-.078c1.167-.155 2.178-.93 2.178-1.939 0-2.017-3.189-2.172-6.144-2.172a50.37 50.37 0 00-5.756.31l-.078 7.99.738.055zm49.273-4.01c0-3.336 4.045-4.5 7.156-4.5 3.111 0 7.156 1.086 7.156 4.5 0 3.257-4.045 4.42-7.156 4.42-3.033 0-7.156-1.163-7.156-4.42z" fill="#5C6774"/><path opacity=".5" d="M84.856 2.82L81.51.029v5.663l3.345-2.87z" fill="#5C6774"/><path opacity=".3" fill="#5C6774" d="M.467 15.309h17.811v5.663H.467z"/><path opacity=".4" fill="#5C6774" d="M18.278 15.309h17.811v5.663H18.278z"/><path opacity=".5" fill="#5C6774" d="M36.089 15.309H53.9v5.663H36.089z"/><path opacity=".4" fill="#5C6774" d="M53.822 15.309h17.811v5.663H53.822z"/><path opacity=".4" fill="#5C6774" d="M71.633 15.309h17.811v5.663H71.633z"/></svg>