<svg width="54" height="18" fill="none" xmlns="http://www.w3.org/2000/svg"><path d="M19.073 16.37h4.272L26.126.765h-4.37L19.072 16.37zM34.769 7.047c-1.49-.687-2.384-1.178-2.384-1.963 0-.687.794-1.374 2.483-1.374a8.277 8.277 0 013.18.589l.397.196.596-3.434a11.891 11.891 0 00-3.875-.687c-4.271 0-7.251 2.159-7.251 5.103 0 2.257 2.086 3.532 3.774 4.22 1.69.784 2.285 1.275 2.186 1.962 0 1.08-1.291 1.472-2.583 1.472a9.148 9.148 0 01-4.073-.785l-.596-.197-.596 3.533c1.533.527 3.145.792 4.768.785 4.57 0 7.45-2.06 7.55-5.299.1-1.668-1.093-3.042-3.576-4.121z" fill="#5C6774"/><path fill-rule="evenodd" clip-rule="evenodd" d="M46.69.766h3.377l3.279 15.603h-3.974s-.397-1.766-.497-2.355h-5.464c-.198.393-.894 2.355-.894 2.355h-4.47l6.358-14.327A2.283 2.283 0 0146.69.766zm-.298 5.79s-1.292 3.435-1.689 4.318v.098h3.576c-.199-.785-.993-4.514-.993-4.514l-.298-1.374a20.871 20.871 0 01-.596 1.472z" fill="#5C6774"/><path d="M15.497.766l-4.172 10.598-.398-2.158a12.34 12.34 0 00-5.96-6.575l3.874 13.64h4.57L20.166.668l-4.669.098z" fill="#5C6774"/><path opacity=".5" d="M7.351.766H.397l-.099.295c5.364 1.275 8.94 4.416 10.43 8.145l-1.49-7.164C9.04 1.061 8.246.766 7.352.766z" fill="#5C6774"/></svg>