<svg width="71" height="22" fill="none" xmlns="http://www.w3.org/2000/svg"><path fill-rule="evenodd" clip-rule="evenodd" d="M9.178 2.277C8.79 1.264 8.322.252 6.92.252c-1.401 0-1.868 1.012-2.258 2.025-.155.545-3.815 10.51-3.97 10.899.002.122.059.236.155.311.06.03.389.153.773.298.61.229 1.36.51 1.407.558.078 0 .234-.077.234-.155 0-.05.352-.997.625-1.73.153-.412.281-.756.31-.84h5.45c.077.234.856 2.492.934 2.57 0 .155.155.233.233.155a36.03 36.03 0 011.09-.428c.507-.194 1.013-.389 1.09-.428a.31.31 0 00.156-.311c-.047-.188-1.428-3.952-2.55-7.008v-.004C9.863 4.16 9.24 2.462 9.179 2.277zM.224 18.625a.249.249 0 01.234-.233H13.46a.207.207 0 01.233.233v2.336a.249.249 0 01-.233.233H.458a.206.206 0 01-.234-.233v-2.336zM6.92 3.522L5.052 9.127h3.737L6.92 3.522zm48.25 8.929a.904.904 0 00.258-.755c0-.7-.312-.934-1.012-1.09-.183 0-.365.027-.516.05a2.094 2.094 0 01-.263.028v1.947c.255.06.517.087.779.078a.905.905 0 00.754-.258zm1.581-.832a1.848 1.848 0 00-2.102-1.947 2.3 2.3 0 00-1.012.156V8.115c.097 0 .22-.013.365-.029a6.56 6.56 0 01.725-.048c.469-.011.937.015 1.402.077V7.103a7.9 7.9 0 00-1.947-.155c-.654.03-1.304.108-1.947.233v6.228a6.217 6.217 0 002.025.39c1.635 0 2.491-.857 2.491-2.18zm-15.883 1.09c.623 0 .934-.545.934-1.402 0-1.012-.311-1.479-.856-1.401a1.28 1.28 0 00-.701.156v2.569c.201.064.412.09.623.078zm-3.426-1.402c0-.934.311-1.479.856-1.479a1.28 1.28 0 01.701.156v2.647c-.201.064-.412.09-.623.078-.7 0-.934-.545-.934-1.402zm2.803 2.18v1.635h-1.246v-1.713c-.312.162-.66.242-1.012.234-1.09 0-1.79-.857-1.79-2.414 0-1.712.778-2.49 2.023-2.49.27-.033.543.022.78.155V6.87h1.245v2.024a1.28 1.28 0 01.779-.156c1.245 0 2.024.779 2.024 2.491 0 1.635-.779 2.492-1.79 2.492-.353.008-.7-.072-1.013-.234zm-9.421.156V9.127a5.763 5.763 0 00-3.738 0v2.336c.039.34.012.683-.077 1.012-.076.215-.21.404-.39.545l.312.7c1.012-.31 1.401-.7 1.401-2.101V9.906a2.53 2.53 0 011.246 0v3.737h1.246zm14.56-.857c.236.01.472-.017.7-.077a3.224 3.224 0 00-.077-.779v-.311a.584.584 0 00-.39-.078c-.623 0-.934.155-.934.623 0 .467.234.622.7.622zm2.336.468a2.125 2.125 0 01-.39-1.402v-1.245a1.847 1.847 0 00-.233-1.168c-.234-.39-.701-.467-1.48-.467a9.584 9.584 0 00-1.557.155l.156.935c.333-.065.673-.091 1.012-.078.856 0 .934.155.934.7v.234c-.2-.07-.412-.096-.623-.078-1.245 0-1.868.623-1.868 1.635a1.45 1.45 0 001.557 1.48 3.91 3.91 0 00.934-.156c.164-.062.32-.14.468-.234.155.156.389.39.467.39l.623-.701zm11.367-.468c.236.013.473-.013.701-.077 0-.065-.013-.156-.029-.263-.022-.151-.049-.333-.049-.516v-.311a.584.584 0 00-.39-.078c-.622 0-.934.155-.934.623 0 .467.234.622.701.622zm2.258.468a2.125 2.125 0 01-.39-1.402v-1.245a1.847 1.847 0 00-.233-1.168c-.233-.39-.7-.467-1.479-.467a9.583 9.583 0 00-1.557.155l.156.935c.333-.065.672-.091 1.012-.078.856 0 .934.155.934.7v.234c-.2-.07-.412-.096-.623-.078-1.246 0-1.868.623-1.868 1.635a1.45 1.45 0 001.557 1.48c.316-.015.63-.067.934-.156.163-.062.32-.14.467-.234.156.156.39.39.467.39l.623-.701zm-27.796-.468c.623 0 .778-.311.778-.778 0-.39-.155-.7-.778-.7a1.754 1.754 0 00-.545.077v1.324c.174.063.36.09.545.077zm-1.713-3.814v4.437c.57.233 1.176.364 1.79.39 1.324 0 2.025-.701 2.025-1.791a1.562 1.562 0 00-1.79-1.635 2.769 2.769 0 00-.78.156V8.972h-1.245zm34.103-.078v4.749h-1.246v-1.947h-1.401v1.947h-1.246v-4.75h1.246v1.791h1.401v-1.79h1.246zM71 13.643s-.7-1.48-.856-1.79c-.11-.36-.41-.63-.78-.701.325-.121.58-.377.702-.701.148-.296.233-.436.296-.538.036-.06.065-.106.093-.163a.776.776 0 01.311-.078l.078-.856H70.3a.76.76 0 00-.7.311c-.149.153-.256.34-.312.545a2.766 2.766 0 01-.156.35c-.058.117-.117.234-.155.351-.034.051-.061.099-.085.142-.086.152-.14.247-.383.247h-.233v-1.79h-1.246v4.749h1.246v-1.947h.156c.348 0 .385.063.556.355l.067.113c.233.467.622 1.479.622 1.479H71v-.078zm-44.848 0H24.75s-.155-.545-.389-1.324h-2.336c-.233.779-.389 1.324-.389 1.324h-1.401l2.258-6.618c.22-.096.459-.15.7-.155.266.014.528.066.779.155l2.18 6.618zm-3.815-2.414s.39-1.323.467-1.557c.156-.545.39-1.4.39-1.4h.077s.234.855.39 1.4c.077.156.467 1.557.467 1.557h-1.791zm26.706.078a.779.779 0 111.557 0 .779.779 0 01-1.557 0z" fill="#5C6774"/></svg>