<svg version="1.1" id="Layer_1" xmlns="http://www.w3.org/2000/svg" x="0" y="0" viewBox="0 0 809 229"
     xml:space="preserve" fill-rule="evenodd" clip-rule="evenodd">
    <path fill="#5c6774"
          d="M218 0v.1c-.1 0-31.6-.1-40 30-7.7 27.6-29.4 103.8-30 105.9h-6s-22.2-77.9-30-106C103.6-.1 72 0 72 0H0v229h72V93h6l42 136h50l42-135.9h6V229h72V0h-72z"/>
    <path fill="#5c6774" d="M481 0s-21.1 1.9-31 24l-51 112h-6V0h-72v229h68s22.1-2 32-24l50-112h6v136h72V0h-68z"/>
    <path fill="#5c6774" d="M581 104v125h72v-73h78c34 0 62.8-21.7 73.5-52H581z"/>
    <path fill="#5c6774"  d="M731 0H570.9c8 43.6 40.7 78.6 83 90 9.6 2.6 19.7 4 30.1 4h123.4c1.1-5.2 1.6-10.5 1.6-16 0-43.1-34.9-78-78-78z"/>
</svg>