<svg width="118" height="28" fill="none" xmlns="http://www.w3.org/2000/svg"><mask id="a" maskUnits="userSpaceOnUse" x="0" y="0" width="118" height="28"><path fill="#fff" d="M0 0h118v28H0z"/></mask><g mask="url(#a)" fill="#5C6774"><path d="M93.889 16.985v-5.441h1.556v1.992h1.788v-1.992h1.556v5.441h-1.556v-2.452h-1.788v2.452h-1.556z"/><path fill-rule="evenodd" clip-rule="evenodd" d="M89.533 13.766a1.632 1.632 0 00-1.166 1.61c0 2.222 3.266 1.839 4.666 1.303v-3.985a1.315 1.315 0 00-1.01-1.227 4.654 4.654 0 00-1.09-.153 5.92 5.92 0 00-2.022.383l.078.997a3.582 3.582 0 011.555-.384c.545 0 1.012.154 1.012.92v.153c-.205.034-.38.053-.538.07-.202.022-.377.04-.551.084a2.094 2.094 0 00-.934.23zm2.023.383v1.916c-.467.154-1.712.384-1.634-.766 0-.92.934-1.073 1.634-1.15zM87.2 11.85c.332.316.574.713.7 1.15.138.368.165.767.078 1.15 0 1.762-.856 2.912-2.722 2.912a2.475 2.475 0 01-2.49-1.763 9.969 9.969 0 01-.155-3.755A3.04 3.04 0 0185.1 8.862c1.089-.23 2.333-.384 2.333-.384l.156 1.15s-.7.077-1.945.307c-1.244.23-1.866.92-1.866 2.375a2.468 2.468 0 013.422-.46zm-1.867 4.369a.71.71 0 00.623-.307c.316-.478.479-1.039.466-1.61a4.28 4.28 0 00-.233-1.379.889.889 0 00-.856-.69.993.993 0 00-.7.307 2.13 2.13 0 00-.466 1.533c0 .69.233 2.146 1.166 2.146z"/><path d="M99.878 16.985v-5.441h1.633v2.452l1.633-2.452h1.556l-1.789 2.376 1.945 3.065h-1.789l-1.556-2.682v2.682h-1.633zM74.367 17.062a3.845 3.845 0 01-1.556-.23l.156-.92c.348.217.755.324 1.166.307.778 0 1.245-.384 1.245-.843a.863.863 0 00-.234-.613.711.711 0 00-.544-.23h-.933v-.843h.078c.622 0 1.477 0 1.477-.767a.729.729 0 00-.297-.567.752.752 0 00-.636-.122 2.65 2.65 0 00-1.322.383l-.078-.92a4.623 4.623 0 011.789-.306c1.244 0 2.1.536 2.022 1.38a1.426 1.426 0 01-1.011 1.225c.24.053.475.13.7.23.356.242.562.647.544 1.073A1.541 1.541 0 0176 16.755a3.875 3.875 0 01-1.633.307zM60.133 17.062a2.702 2.702 0 01-2.133-.79 2.616 2.616 0 01-.744-2.122 2.595 2.595 0 01.768-2.08 2.68 2.68 0 012.11-.756c.45.002.897.08 1.322.23l-.156.996a1.793 1.793 0 00-.855-.23c-1.09 0-1.556.843-1.556 1.84 0 .996.467 1.915 1.555 1.915.326-.003.645-.082.934-.23l.078.997c-.425.15-.872.228-1.323.23z"/><path fill-rule="evenodd" clip-rule="evenodd" d="M77.711 11.544v5.441s.545.077 1.556.153c1.01 0 2.877-.383 2.877-2.146a1.565 1.565 0 00-.622-1.379 2.999 2.999 0 00-1.633-.383h-.622v-1.686H77.71zm3.034 3.448c0 1.38-1.478 1.073-1.478 1.073V14.15h.389c.342-.042.685.07.933.307a.883.883 0 01.156.537zM65.811 14.073a1.218 1.218 0 001.011-1.226 1.809 1.809 0 00-.155-.69.965.965 0 00-.623-.46 4.885 4.885 0 00-1.788-.306 11.1 11.1 0 00-1.945.153v5.441c.642.108 1.293.16 1.945.153 1.088 0 2.8-.306 2.877-1.686v-.076a1.407 1.407 0 00-1.322-1.303zm-1.555.536h.466c.168.004.33.057.467.154.167.126.256.33.233.536 0 .613-.544.843-1.244.843h-.39V14.61h.468zm-.467-2.375v1.456h.389c.778 0 1.089-.23 1.089-.767 0-.23-.156-.69-.934-.69h-.544zM67.522 13.077c0-1.533 1.478-1.686 2.645-1.686a5.395 5.395 0 011.866.153v5.441h-1.555v-2.146h-.467l-1.166 2.146H67.21l1.478-2.452a1.357 1.357 0 01-1.167-1.456zm2.567.766h.311v-1.61h-.544a.757.757 0 00-.611.185A.733.733 0 0069 13c0 .613.311.843 1.089.843z"/><path d="M31.433 16.985V9.322h6.223v7.663h-1.867v-6.437h-2.411v6.437h-1.945z"/><path fill-rule="evenodd" clip-rule="evenodd" d="M38.433 11.697v7.587h1.556v-2.452a2.856 2.856 0 002.878-.767 2.98 2.98 0 00.7-2.145c0-3.296-3.734-2.53-5.134-2.223zm1.556.69c.544-.153 2.022-.383 2.022 1.686 0 2.23-1.39 1.957-1.88 1.862a.985.985 0 00-.142-.023v-3.525zM44.111 14.226c0 1.686.856 2.836 2.645 2.836 1.944 0 2.722-.997 2.644-2.836.025-.44-.027-.88-.156-1.303a1.775 1.775 0 00-.777-1.072c-.451-.322-1-.484-1.556-.46-1.867 0-2.8 1.072-2.8 2.835zm3.656 1.15c-.156.46-.467.843-.934.843-.933 0-1.089-1.38-1.089-2.07-.015-.389.038-.777.156-1.149a.982.982 0 01.933-.766c.39.003.733.25.856.613.166.414.245.857.233 1.303.017.414-.036.828-.155 1.226z"/><path d="M49.789 16.985l.544-5.441H52.2l1.167 3.678 1.166-3.678H56.4l.544 5.441h-1.477l-.311-3.908-1.245 3.908h-1.244L51.422 13l-.31 3.985h-1.323zM26.767 6.793a5.875 5.875 0 00-1.733-4.217A6.053 6.053 0 0020.778.815h-8.556c-2.8 0-4.9 2.07-5.6 4.598h10.19c3.966 0 5.366 1.533 5.366 5.901v9.503c2.566-.69 4.666-2.836 4.666-5.518l-.077-8.506z"/><path fill-rule="evenodd" clip-rule="evenodd" d="M19.3 10.241a1.488 1.488 0 001.089-1.533c0-1.15-.856-1.686-2.178-1.686h-2.333v2.76H14.4a1.944 1.944 0 00-1.535.465 1.884 1.884 0 00-.643 1.45c0 .997.545 1.38 1.634 1.916.095.047.194.092.293.138.55.25 1.107.504 1.107 1.088a.984.984 0 01-1.09.843h-1.4c.2-.323.308-.694.312-1.073 0-.46-.156-2.222-2.722-2.222H8.1v6.897h1.556v-2.912l.544.536h3.889c1.789 0 2.8-1.073 2.8-2.145a2.82 2.82 0 00-.156-.92h1.323c2.255 0 2.722-1.15 2.722-1.992a1.726 1.726 0 00-1.478-1.61zm-8.944 5.441h-.7v-2.299h.7c.855 0 1.166.46 1.166 1.073.023.318-.09.632-.311.864a1.17 1.17 0 01-.855.362zm5.522-2.605V11.39l.544-.537h-1.71c-.856 0-1.012.383-1.012.69 0 .536.467.843.933.996.434.132.852.312 1.245.537zm1.633-5.058h.467c1.089 0 1.089.613 1.089.843 0 .306-.078.843-1.011.843h-.545V8.019zm-.078 4.751h.7c.934 0 1.167-.536 1.167-.996 0-.46-.155-.92-1.167-.92h-.7v1.916z"/><path opacity=".5" d="M1.878 19.36c.004 3.3 2.718 5.974 6.066 5.978H16.5c2.8 0 4.822-2.069 5.522-4.598H11.99c-3.967 0-5.445-1.61-5.445-5.9V5.412c-2.566.69-4.666 2.759-4.666 5.518v8.43z"/></g></svg>